<?xml version="1.0" encoding="utf-8"?>
<!-- Generator: Adobe Illustrator 16.0.0, SVG Export Plug-In . SVG Version: 6.00 Build 0)  -->
<!DOCTYPE svg PUBLIC "-//W3C//DTD SVG 1.0//EN" "http://www.w3.org/TR/2001/REC-SVG-20010904/DTD/svg10.dtd" [
	<!ENTITY ns_extend "http://ns.adobe.com/Extensibility/1.0/">
	<!ENTITY ns_ai "http://ns.adobe.com/AdobeIllustrator/10.0/">
	<!ENTITY ns_graphs "http://ns.adobe.com/Graphs/1.0/">
	<!ENTITY ns_vars "http://ns.adobe.com/Variables/1.0/">
	<!ENTITY ns_imrep "http://ns.adobe.com/ImageReplacement/1.0/">
	<!ENTITY ns_sfw "http://ns.adobe.com/SaveForWeb/1.0/">
	<!ENTITY ns_custom "http://ns.adobe.com/GenericCustomNamespace/1.0/">
	<!ENTITY ns_adobe_xpath "http://ns.adobe.com/XPath/1.0/">
]>
<svg version="1.0" id="Layer_1" xmlns:x="&ns_extend;" xmlns:i="&ns_ai;" xmlns:graph="&ns_graphs;"
	 xmlns="http://www.w3.org/2000/svg" xmlns:xlink="http://www.w3.org/1999/xlink" x="0px" y="0px" width="4960.63px"
	 height="4960.63px" viewBox="0 0 4960.63 4960.63" enable-background="new 0 0 4960.63 4960.63" xml:space="preserve">
<metadata>
	<sfw  xmlns="&ns_sfw;">
		<slices></slices>
		<sliceSourceBounds  width="4925.248" height="4888.487" bottomLeftOrigin="true" y="-4924.487" x="33.502"></sliceSourceBounds>
	</sfw>
</metadata>
<path fill="none" stroke="#000000" stroke-miterlimit="10" d="M4958.75,3842"/>
<line fill="none" stroke="#000000" stroke-miterlimit="10" x1="34" y1="3816.5" x2="4922" y2="3816.5"/>
<line fill="none" stroke="#000000" stroke-miterlimit="10" x1="2480.5" y1="36" x2="2480.5" y2="4924"/>
<line fill="none" stroke="#000000" stroke-miterlimit="10" x1="2511.5" y1="36" x2="2511.5" y2="4924"/>
<line fill="none" stroke="#000000" stroke-miterlimit="10" x1="2543.5" y1="36" x2="2543.5" y2="4924"/>
<line fill="none" stroke="#000000" stroke-miterlimit="10" x1="2574.5" y1="36" x2="2574.5" y2="4924"/>
<line fill="none" stroke="#000000" stroke-miterlimit="10" x1="2606.5" y1="36" x2="2606.5" y2="4924"/>
<line fill="none" stroke="#000000" stroke-miterlimit="10" x1="2637.5" y1="36" x2="2637.5" y2="4924"/>
<line fill="none" stroke="#000000" stroke-miterlimit="10" x1="2669.5" y1="36" x2="2669.5" y2="4924"/>
<line fill="none" stroke="#000000" stroke-miterlimit="10" x1="2700.5" y1="36" x2="2700.5" y2="4924"/>
<line fill="none" stroke="#000000" stroke-miterlimit="10" x1="2729.5" y1="36" x2="2729.5" y2="4924"/>
<line fill="none" stroke="#000000" stroke-miterlimit="10" x1="2760.5" y1="36" x2="2760.5" y2="4924"/>
<line fill="none" stroke="#000000" stroke-miterlimit="10" x1="2792.5" y1="36" x2="2792.5" y2="4924"/>
<line fill="none" stroke="#000000" stroke-miterlimit="10" x1="2823.5" y1="36" x2="2823.5" y2="4924"/>
<line fill="none" stroke="#000000" stroke-miterlimit="10" x1="2855.5" y1="36" x2="2855.5" y2="4924"/>
<line fill="none" stroke="#000000" stroke-miterlimit="10" x1="2886.5" y1="36" x2="2886.5" y2="4924"/>
<line fill="none" stroke="#000000" stroke-miterlimit="10" x1="2918.5" y1="36" x2="2918.5" y2="4924"/>
<line fill="none" stroke="#000000" stroke-miterlimit="10" x1="2949.5" y1="36" x2="2949.5" y2="4924"/>
<line fill="none" stroke="#000000" stroke-miterlimit="10" x1="2979.5" y1="36" x2="2979.5" y2="4924"/>
<line fill="none" stroke="#000000" stroke-miterlimit="10" x1="3010.5" y1="36" x2="3010.5" y2="4924"/>
<line fill="none" stroke="#000000" stroke-miterlimit="10" x1="3042.5" y1="36" x2="3042.5" y2="4924"/>
<line fill="none" stroke="#000000" stroke-miterlimit="10" x1="3073.5" y1="36" x2="3073.5" y2="4924"/>
<line fill="none" stroke="#000000" stroke-miterlimit="10" x1="3105.5" y1="36" x2="3105.5" y2="4924"/>
<line fill="none" stroke="#000000" stroke-miterlimit="10" x1="3136.5" y1="36" x2="3136.5" y2="4924"/>
<line fill="none" stroke="#000000" stroke-miterlimit="10" x1="3168.5" y1="36" x2="3168.5" y2="4924"/>
<line fill="none" stroke="#000000" stroke-miterlimit="10" x1="3199.5" y1="36" x2="3199.5" y2="4924"/>
<line fill="none" stroke="#000000" stroke-miterlimit="10" x1="3228.5" y1="36" x2="3228.5" y2="4924"/>
<line fill="none" stroke="#000000" stroke-miterlimit="10" x1="3259.5" y1="36" x2="3259.5" y2="4924"/>
<line fill="none" stroke="#000000" stroke-miterlimit="10" x1="3291.5" y1="36" x2="3291.5" y2="4924"/>
<line fill="none" stroke="#000000" stroke-miterlimit="10" x1="3322.5" y1="36" x2="3322.5" y2="4924"/>
<line fill="none" stroke="#000000" stroke-miterlimit="10" x1="3354.5" y1="36" x2="3354.5" y2="4924"/>
<line fill="none" stroke="#000000" stroke-miterlimit="10" x1="3385.5" y1="36" x2="3385.5" y2="4924"/>
<line fill="none" stroke="#000000" stroke-miterlimit="10" x1="3417.5" y1="36" x2="3417.5" y2="4924"/>
<line fill="none" stroke="#000000" stroke-miterlimit="10" x1="3448.5" y1="36" x2="3448.5" y2="4924"/>
<line fill="none" stroke="#000000" stroke-miterlimit="10" x1="3482.5" y1="36" x2="3482.5" y2="4924"/>
<line fill="none" stroke="#000000" stroke-miterlimit="10" x1="3513.5" y1="36" x2="3513.5" y2="4924"/>
<line fill="none" stroke="#000000" stroke-miterlimit="10" x1="3545.5" y1="36" x2="3545.5" y2="4924"/>
<line fill="none" stroke="#000000" stroke-miterlimit="10" x1="3576.5" y1="36" x2="3576.5" y2="4924"/>
<line fill="none" stroke="#000000" stroke-miterlimit="10" x1="3608.5" y1="36" x2="3608.5" y2="4924"/>
<line fill="none" stroke="#000000" stroke-miterlimit="10" x1="3639.5" y1="36" x2="3639.5" y2="4924"/>
<line fill="none" stroke="#000000" stroke-miterlimit="10" x1="3671.5" y1="36" x2="3671.5" y2="4924"/>
<line fill="none" stroke="#000000" stroke-miterlimit="10" x1="3702.5" y1="36" x2="3702.5" y2="4924"/>
<line fill="none" stroke="#000000" stroke-miterlimit="10" x1="3731.5" y1="36" x2="3731.5" y2="4924"/>
<line fill="none" stroke="#000000" stroke-miterlimit="10" x1="3762.5" y1="36" x2="3762.5" y2="4924"/>
<line fill="none" stroke="#000000" stroke-miterlimit="10" x1="3794.5" y1="36" x2="3794.5" y2="4924"/>
<line fill="none" stroke="#000000" stroke-miterlimit="10" x1="3825.5" y1="36" x2="3825.5" y2="4924"/>
<line fill="none" stroke="#000000" stroke-miterlimit="10" x1="3857.5" y1="36" x2="3857.5" y2="4924"/>
<line fill="none" stroke="#000000" stroke-miterlimit="10" x1="3888.5" y1="36" x2="3888.5" y2="4924"/>
<line fill="none" stroke="#000000" stroke-miterlimit="10" x1="3920.5" y1="36" x2="3920.5" y2="4924"/>
<line fill="none" stroke="#000000" stroke-miterlimit="10" x1="3951.5" y1="36" x2="3951.5" y2="4924"/>
<line fill="none" stroke="#000000" stroke-miterlimit="10" x1="3981.5" y1="36" x2="3981.5" y2="4924"/>
<line fill="none" stroke="#000000" stroke-miterlimit="10" x1="4012.5" y1="36" x2="4012.5" y2="4924"/>
<line fill="none" stroke="#000000" stroke-miterlimit="10" x1="4044.5" y1="36" x2="4044.5" y2="4924"/>
<line fill="none" stroke="#000000" stroke-miterlimit="10" x1="4075.5" y1="36" x2="4075.5" y2="4924"/>
<line fill="none" stroke="#000000" stroke-miterlimit="10" x1="4107.5" y1="36" x2="4107.5" y2="4924"/>
<line fill="none" stroke="#000000" stroke-miterlimit="10" x1="4138.5" y1="36" x2="4138.5" y2="4924"/>
<line fill="none" stroke="#000000" stroke-miterlimit="10" x1="4170.5" y1="36" x2="4170.5" y2="4924"/>
<line fill="none" stroke="#000000" stroke-miterlimit="10" x1="4201.5" y1="36" x2="4201.5" y2="4924"/>
<line fill="none" stroke="#000000" stroke-miterlimit="10" x1="4230.5" y1="36" x2="4230.5" y2="4924"/>
<line fill="none" stroke="#000000" stroke-miterlimit="10" x1="4261.5" y1="36" x2="4261.5" y2="4924"/>
<line fill="none" stroke="#000000" stroke-miterlimit="10" x1="4293.5" y1="36" x2="4293.5" y2="4924"/>
<line fill="none" stroke="#000000" stroke-miterlimit="10" x1="4324.5" y1="36" x2="4324.5" y2="4924"/>
<line fill="none" stroke="#000000" stroke-miterlimit="10" x1="4356.5" y1="36" x2="4356.5" y2="4924"/>
<line fill="none" stroke="#000000" stroke-miterlimit="10" x1="4387.5" y1="36" x2="4387.5" y2="4924"/>
<line fill="none" stroke="#000000" stroke-miterlimit="10" x1="4419.5" y1="36" x2="4419.5" y2="4924"/>
<line fill="none" stroke="#000000" stroke-miterlimit="10" x1="4450.5" y1="36" x2="4450.5" y2="4924"/>
<line fill="none" stroke="#000000" stroke-miterlimit="10" x1="481.5" y1="36" x2="481.5" y2="4924"/>
<line fill="none" stroke="#000000" stroke-miterlimit="10" x1="512.5" y1="36" x2="512.5" y2="4924"/>
<line fill="none" stroke="#000000" stroke-miterlimit="10" x1="544.5" y1="36" x2="544.5" y2="4924"/>
<line fill="none" stroke="#000000" stroke-miterlimit="10" x1="575.5" y1="36" x2="575.5" y2="4924"/>
<line fill="none" stroke="#000000" stroke-miterlimit="10" x1="607.5" y1="36" x2="607.5" y2="4924"/>
<line fill="none" stroke="#000000" stroke-miterlimit="10" x1="638.5" y1="36" x2="638.5" y2="4924"/>
<line fill="none" stroke="#000000" stroke-miterlimit="10" x1="670.5" y1="36" x2="670.5" y2="4924"/>
<line fill="none" stroke="#000000" stroke-miterlimit="10" x1="701.5" y1="36" x2="701.5" y2="4924"/>
<line fill="none" stroke="#000000" stroke-miterlimit="10" x1="730.5" y1="36" x2="730.5" y2="4924"/>
<line fill="none" stroke="#000000" stroke-miterlimit="10" x1="761.5" y1="36" x2="761.5" y2="4924"/>
<line fill="none" stroke="#000000" stroke-miterlimit="10" x1="793.5" y1="36" x2="793.5" y2="4924"/>
<line fill="none" stroke="#000000" stroke-miterlimit="10" x1="824.5" y1="36" x2="824.5" y2="4924"/>
<line fill="none" stroke="#000000" stroke-miterlimit="10" x1="856.5" y1="36" x2="856.5" y2="4924"/>
<line fill="none" stroke="#000000" stroke-miterlimit="10" x1="887.5" y1="36" x2="887.5" y2="4924"/>
<line fill="none" stroke="#000000" stroke-miterlimit="10" x1="919.5" y1="36" x2="919.5" y2="4924"/>
<line fill="none" stroke="#000000" stroke-miterlimit="10" x1="950.5" y1="36" x2="950.5" y2="4924"/>
<line fill="none" stroke="#000000" stroke-miterlimit="10" x1="980.5" y1="36" x2="980.5" y2="4924"/>
<line fill="none" stroke="#000000" stroke-miterlimit="10" x1="1011.5" y1="36" x2="1011.5" y2="4924"/>
<line fill="none" stroke="#000000" stroke-miterlimit="10" x1="1043.5" y1="36" x2="1043.5" y2="4924"/>
<line fill="none" stroke="#000000" stroke-miterlimit="10" x1="1074.5" y1="36" x2="1074.5" y2="4924"/>
<line fill="none" stroke="#000000" stroke-miterlimit="10" x1="1106.5" y1="36" x2="1106.5" y2="4924"/>
<line fill="none" stroke="#000000" stroke-miterlimit="10" x1="1137.5" y1="36" x2="1137.5" y2="4924"/>
<line fill="none" stroke="#000000" stroke-miterlimit="10" x1="1169.5" y1="36" x2="1169.5" y2="4924"/>
<line fill="none" stroke="#000000" stroke-miterlimit="10" x1="1200.5" y1="36" x2="1200.5" y2="4924"/>
<line fill="none" stroke="#000000" stroke-miterlimit="10" x1="1229.5" y1="36" x2="1229.5" y2="4924"/>
<line fill="none" stroke="#000000" stroke-miterlimit="10" x1="1260.5" y1="36" x2="1260.5" y2="4924"/>
<line fill="none" stroke="#000000" stroke-miterlimit="10" x1="1292.5" y1="36" x2="1292.5" y2="4924"/>
<line fill="none" stroke="#000000" stroke-miterlimit="10" x1="1323.5" y1="36" x2="1323.5" y2="4924"/>
<line fill="none" stroke="#000000" stroke-miterlimit="10" x1="1355.5" y1="36" x2="1355.5" y2="4924"/>
<line fill="none" stroke="#000000" stroke-miterlimit="10" x1="1386.5" y1="36" x2="1386.5" y2="4924"/>
<line fill="none" stroke="#000000" stroke-miterlimit="10" x1="1418.5" y1="36" x2="1418.5" y2="4924"/>
<line fill="none" stroke="#000000" stroke-miterlimit="10" x1="1449.5" y1="36" x2="1449.5" y2="4924"/>
<line fill="none" stroke="#000000" stroke-miterlimit="10" x1="1483.5" y1="36" x2="1483.5" y2="4924"/>
<line fill="none" stroke="#000000" stroke-miterlimit="10" x1="1514.5" y1="36" x2="1514.5" y2="4924"/>
<line fill="none" stroke="#000000" stroke-miterlimit="10" x1="1546.5" y1="36" x2="1546.5" y2="4924"/>
<line fill="none" stroke="#000000" stroke-miterlimit="10" x1="1577.5" y1="36" x2="1577.5" y2="4924"/>
<line fill="none" stroke="#000000" stroke-miterlimit="10" x1="1609.5" y1="36" x2="1609.5" y2="4924"/>
<line fill="none" stroke="#000000" stroke-miterlimit="10" x1="1640.5" y1="36" x2="1640.5" y2="4924"/>
<line fill="none" stroke="#000000" stroke-miterlimit="10" x1="1672.5" y1="36" x2="1672.5" y2="4924"/>
<line fill="none" stroke="#000000" stroke-miterlimit="10" x1="1703.5" y1="36" x2="1703.5" y2="4924"/>
<line fill="none" stroke="#000000" stroke-miterlimit="10" x1="1732.5" y1="36" x2="1732.5" y2="4924"/>
<line fill="none" stroke="#000000" stroke-miterlimit="10" x1="1763.5" y1="36" x2="1763.5" y2="4924"/>
<line fill="none" stroke="#000000" stroke-miterlimit="10" x1="1795.5" y1="36" x2="1795.5" y2="4924"/>
<line fill="none" stroke="#000000" stroke-miterlimit="10" x1="1826.5" y1="36" x2="1826.5" y2="4924"/>
<line fill="none" stroke="#000000" stroke-miterlimit="10" x1="1858.5" y1="36" x2="1858.5" y2="4924"/>
<line fill="none" stroke="#000000" stroke-miterlimit="10" x1="1889.5" y1="36" x2="1889.5" y2="4924"/>
<line fill="none" stroke="#000000" stroke-miterlimit="10" x1="1921.5" y1="36" x2="1921.5" y2="4924"/>
<line fill="none" stroke="#000000" stroke-miterlimit="10" x1="1952.5" y1="36" x2="1952.5" y2="4924"/>
<line fill="none" stroke="#000000" stroke-miterlimit="10" x1="1982.5" y1="36" x2="1982.5" y2="4924"/>
<line fill="none" stroke="#000000" stroke-miterlimit="10" x1="2013.5" y1="36" x2="2013.5" y2="4924"/>
<line fill="none" stroke="#000000" stroke-miterlimit="10" x1="2045.5" y1="36" x2="2045.5" y2="4924"/>
<line fill="none" stroke="#000000" stroke-miterlimit="10" x1="2076.5" y1="36" x2="2076.5" y2="4924"/>
<line fill="none" stroke="#000000" stroke-miterlimit="10" x1="2108.5" y1="36" x2="2108.5" y2="4924"/>
<line fill="none" stroke="#000000" stroke-miterlimit="10" x1="2139.5" y1="36" x2="2139.5" y2="4924"/>
<line fill="none" stroke="#000000" stroke-miterlimit="10" x1="2171.5" y1="36" x2="2171.5" y2="4924"/>
<line fill="none" stroke="#000000" stroke-miterlimit="10" x1="2202.5" y1="36" x2="2202.5" y2="4924"/>
<line fill="none" stroke="#000000" stroke-miterlimit="10" x1="2231.5" y1="36" x2="2231.5" y2="4924"/>
<line fill="none" stroke="#000000" stroke-miterlimit="10" x1="2262.5" y1="36" x2="2262.5" y2="4924"/>
<line fill="none" stroke="#000000" stroke-miterlimit="10" x1="2294.5" y1="36" x2="2294.5" y2="4924"/>
<line fill="none" stroke="#000000" stroke-miterlimit="10" x1="2325.5" y1="36" x2="2325.5" y2="4924"/>
<line fill="none" stroke="#000000" stroke-miterlimit="10" x1="2357.5" y1="36" x2="2357.5" y2="4924"/>
<line fill="none" stroke="#000000" stroke-miterlimit="10" x1="2388.5" y1="36" x2="2388.5" y2="4924"/>
<line fill="none" stroke="#000000" stroke-miterlimit="10" x1="2420.5" y1="36" x2="2420.5" y2="4924"/>
<line fill="none" stroke="#000000" stroke-miterlimit="10" x1="2451.5" y1="36" x2="2451.5" y2="4924"/>
<line fill="none" stroke="#000000" stroke-miterlimit="10" x1="101.5" y1="36" x2="101.5" y2="4924"/>
<line fill="none" stroke="#000000" stroke-miterlimit="10" x1="132.5" y1="36" x2="132.5" y2="4924"/>
<line fill="none" stroke="#000000" stroke-miterlimit="10" x1="164.5" y1="36" x2="164.5" y2="4924"/>
<line fill="none" stroke="#000000" stroke-miterlimit="10" x1="195.5" y1="36" x2="195.5" y2="4924"/>
<line fill="none" stroke="#000000" stroke-miterlimit="10" x1="227.5" y1="36" x2="227.5" y2="4924"/>
<line fill="none" stroke="#000000" stroke-miterlimit="10" x1="258.5" y1="36" x2="258.5" y2="4924"/>
<line fill="none" stroke="#000000" stroke-miterlimit="10" x1="290.5" y1="36" x2="290.5" y2="4924"/>
<line fill="none" stroke="#000000" stroke-miterlimit="10" x1="321.5" y1="36" x2="321.5" y2="4924"/>
<line fill="none" stroke="#000000" stroke-miterlimit="10" x1="350.5" y1="36" x2="350.5" y2="4924"/>
<line fill="none" stroke="#000000" stroke-miterlimit="10" x1="381.5" y1="36" x2="381.5" y2="4924"/>
<line fill="none" stroke="#000000" stroke-miterlimit="10" x1="413.5" y1="36" x2="413.5" y2="4924"/>
<line fill="none" stroke="#000000" stroke-miterlimit="10" x1="444.5" y1="36" x2="444.5" y2="4924"/>
<line fill="none" stroke="#000000" stroke-miterlimit="10" x1="37.5" y1="36" x2="37.5" y2="4924"/>
<line fill="none" stroke="#000000" stroke-miterlimit="10" x1="68.5" y1="36" x2="68.5" y2="4924"/>
<line fill="none" stroke="#000000" stroke-miterlimit="10" x1="4479.5" y1="36" x2="4479.5" y2="4924"/>
<line fill="none" stroke="#000000" stroke-miterlimit="10" x1="4510.5" y1="36" x2="4510.5" y2="4924"/>
<line fill="none" stroke="#000000" stroke-miterlimit="10" x1="4542.5" y1="36" x2="4542.5" y2="4924"/>
<line fill="none" stroke="#000000" stroke-miterlimit="10" x1="4573.5" y1="36" x2="4573.5" y2="4924"/>
<line fill="none" stroke="#000000" stroke-miterlimit="10" x1="4602.5" y1="36" x2="4602.5" y2="4924"/>
<line fill="none" stroke="#000000" stroke-miterlimit="10" x1="4633.5" y1="36" x2="4633.5" y2="4924"/>
<line fill="none" stroke="#000000" stroke-miterlimit="10" x1="4665.5" y1="36" x2="4665.5" y2="4924"/>
<line fill="none" stroke="#000000" stroke-miterlimit="10" x1="4696.5" y1="36" x2="4696.5" y2="4924"/>
<line fill="none" stroke="#000000" stroke-miterlimit="10" x1="4728.5" y1="36" x2="4728.5" y2="4924"/>
<line fill="none" stroke="#000000" stroke-miterlimit="10" x1="4759.5" y1="36" x2="4759.5" y2="4924"/>
<line fill="none" stroke="#000000" stroke-miterlimit="10" x1="4791.5" y1="36" x2="4791.5" y2="4924"/>
<line fill="none" stroke="#000000" stroke-miterlimit="10" x1="4822.5" y1="36" x2="4822.5" y2="4924"/>
<line fill="none" stroke="#000000" stroke-miterlimit="10" x1="4854.5" y1="36" x2="4854.5" y2="4924"/>
<line fill="none" stroke="#000000" stroke-miterlimit="10" x1="4886.5" y1="36" x2="4886.5" y2="4924"/>
<line fill="none" stroke="#000000" stroke-miterlimit="10" x1="4917.5" y1="36" x2="4917.5" y2="4924"/>
<line fill="none" stroke="#000000" stroke-miterlimit="10" x1="34" y1="3816.5" x2="4917.5" y2="4924"/>
<line fill="none" stroke="#000000" stroke-miterlimit="10" x1="4922" y1="3816.5" x2="37.5" y2="4924"/>
<line fill="none" stroke="#000000" stroke-miterlimit="10" x1="34" y1="3816.5" x2="2480.5" y2="4924"/>
<line fill="none" stroke="#000000" stroke-miterlimit="10" x1="2480.5" y1="4924" x2="4922" y2="3816.5"/>
<line fill="none" stroke="#000000" stroke-miterlimit="10" x1="4922" y1="3816.5" x2="1418.5" y2="4924"/>
<line fill="none" stroke="#000000" stroke-miterlimit="10" x1="34" y1="3816.5" x2="3513.5" y2="4924"/>
<line fill="none" stroke="#000000" stroke-miterlimit="10" x1="4922" y1="3816.5" x2="3513.5" y2="4924"/>
<line fill="none" stroke="#000000" stroke-miterlimit="10" x1="34" y1="3816.5" x2="1418.5" y2="4924"/>
<line fill="none" stroke="#000000" stroke-miterlimit="10" x1="34" y1="3816.5" x2="4922" y2="4609"/>
<line fill="none" stroke="#000000" stroke-miterlimit="10" x1="4922" y1="3816.5" x2="34" y2="4609"/>
<line fill="none" stroke="#000000" stroke-miterlimit="10" x1="34" y1="3816.5" x2="4917.5" y2="4370.25"/>
<line fill="none" stroke="#000000" stroke-miterlimit="10" x1="4922" y1="3816.5" x2="37.5" y2="4370.25"/>
<line fill="none" stroke="#000000" stroke-miterlimit="10" x1="34" y1="3816.5" x2="4917.5" y2="4212.75"/>
<line fill="none" stroke="#000000" stroke-miterlimit="10" x1="4922" y1="3816.5" x2="37.5" y2="4212.75"/>
<line fill="none" stroke="#000000" stroke-miterlimit="10" x1="34" y1="3816.5" x2="4917.5" y2="4093.375"/>
<line fill="none" stroke="#000000" stroke-miterlimit="10" x1="4922" y1="3816.5" x2="37.5" y2="4093.375"/>
<line fill="none" stroke="#000000" stroke-miterlimit="10" x1="34" y1="3816.5" x2="4922" y2="3979.91"/>
<line fill="none" stroke="#000000" stroke-miterlimit="10" x1="4922" y1="3816.5" x2="37.5" y2="3979.91"/>
<line fill="none" stroke="#000000" stroke-miterlimit="10" x1="34" y1="3816.5" x2="4917.5" y2="3898.205"/>
<line fill="none" stroke="#000000" stroke-miterlimit="10" x1="4922" y1="3816.5" x2="34" y2="3898.205"/>
<line fill="none" stroke="#000000" stroke-miterlimit="10" x1="34" y1="3816.5" x2="4917.5" y2="3857.353"/>
<line fill="none" stroke="#000000" stroke-miterlimit="10" x1="4922" y1="3816.5" x2="37.5" y2="3857.353"/>
<line fill="none" stroke="#000000" stroke-miterlimit="10" x1="34" y1="3816.5" x2="1921.5" y2="4924"/>
<line fill="none" stroke="#000000" stroke-miterlimit="10" x1="34" y1="3816.5" x2="3010.5" y2="4924"/>
<line fill="none" stroke="#000000" stroke-miterlimit="10" x1="34" y1="3816.5" x2="4138.5" y2="4924"/>
<line fill="none" stroke="#000000" stroke-miterlimit="10" x1="34" y1="3816.5" x2="4917.5" y2="4756.906"/>
<line fill="none" stroke="#000000" stroke-miterlimit="10" x1="34" y1="3816.5" x2="4917.5" y2="4480.962"/>
<line fill="none" stroke="#000000" stroke-miterlimit="10" x1="34" y1="3816.5" x2="4917.5" y2="4286.703"/>
<line fill="none" stroke="#000000" stroke-miterlimit="10" x1="34" y1="3816.5" x2="4917.5" y2="4148.73"/>
<line fill="none" stroke="#000000" stroke-miterlimit="10" x1="4917.5" y1="4033" x2="34" y2="3816.5"/>
<line fill="none" stroke="#000000" stroke-miterlimit="10" x1="4922" y1="3816.5" x2="4261.5" y2="4924"/>
<line fill="none" stroke="#000000" stroke-miterlimit="10" x1="34" y1="3816.5" x2="919.5" y2="4924"/>
<line fill="none" stroke="#000000" stroke-miterlimit="10" x1="34" y1="3816.5" x2="481.5" y2="4924"/>
<line fill="none" stroke="#000000" stroke-miterlimit="10" x1="34" y1="3816.5" x2="132.5" y2="4924"/>
<line fill="none" stroke="#000000" stroke-miterlimit="10" x1="4922" y1="3816.5" x2="1952.5" y2="4924"/>
<line fill="none" stroke="#000000" stroke-miterlimit="10" x1="4922" y1="3816.5" x2="3042.5" y2="4924"/>
<line fill="none" stroke="#000000" stroke-miterlimit="10" x1="4922" y1="3816.5" x2="824.5" y2="4924"/>
<line fill="none" stroke="#000000" stroke-miterlimit="10" x1="4922" y1="3816.5" x2="34" y2="4756.906"/>
<line fill="none" stroke="#000000" stroke-miterlimit="10" x1="4922" y1="3816.5" x2="37.5" y2="4480.962"/>
<line fill="none" stroke="#000000" stroke-miterlimit="10" x1="4922" y1="3816.5" x2="3888.5" y2="4924"/>
<line fill="none" stroke="#000000" stroke-miterlimit="10" x1="4922" y1="3816.5" x2="4573.5" y2="4924"/>
<line fill="none" stroke="#000000" stroke-miterlimit="10" x1="4922" y1="3816.5" x2="4854.5" y2="4924"/>
</svg>
