<?xml version="1.0" encoding="utf-8"?>
<!-- Generator: Adobe Illustrator 16.0.0, SVG Export Plug-In . SVG Version: 6.00 Build 0)  -->
<!DOCTYPE svg PUBLIC "-//W3C//DTD SVG 1.0//EN" "http://www.w3.org/TR/2001/REC-SVG-20010904/DTD/svg10.dtd">
<svg version="1.0" id="Layer_1" xmlns="http://www.w3.org/2000/svg" xmlns:xlink="http://www.w3.org/1999/xlink" x="0px" y="0px"
	 width="5102.359px" height="5102.359px" viewBox="0 0 5102.359 5102.359" enable-background="new 0 0 5102.359 5102.359"
	 xml:space="preserve">
<polygon fill="none" stroke="#000000" stroke-miterlimit="10" points="2456.057,2758.801 2265.846,2758.174 2171.285,2593.133 
	2266.934,2428.719 2457.145,2429.347 2551.707,2594.387 "/>
<polygon fill="none" stroke="#000000" stroke-miterlimit="10" points="2520.479,2647.834 2458.472,2647.629 2427.647,2593.828 
	2458.828,2540.231 2520.834,2540.437 2551.659,2594.236 "/>
<polygon fill="none" stroke="#000000" stroke-miterlimit="10" points="2457.901,2540.089 2394.854,2539.882 2363.512,2485.178 
	2395.216,2430.682 2458.262,2430.89 2489.605,2485.593 "/>
<polygon fill="none" stroke="#000000" stroke-miterlimit="10" points="2395.378,2647.834 2333.372,2647.629 2302.547,2593.828 
	2333.728,2540.231 2395.733,2540.437 2426.559,2594.236 "/>
<polygon fill="none" stroke="#000000" stroke-miterlimit="10" points="2333.373,2647.834 2271.366,2647.629 2240.541,2593.828 
	2271.722,2540.231 2333.728,2540.437 2364.553,2594.236 "/>
<polygon fill="none" stroke="#000000" stroke-miterlimit="10" points="2363.712,2593.891 2301.705,2593.686 2270.88,2539.885 
	2302.061,2486.288 2364.067,2486.493 2394.892,2540.293 "/>
<polygon fill="none" stroke="#000000" stroke-miterlimit="10" points="2438.047,2681.891 2376.04,2681.686 2345.215,2627.885 
	2376.396,2574.288 2438.402,2574.493 2469.227,2628.293 "/>
<polygon fill="none" stroke="#000000" stroke-miterlimit="10" points="2417.047,2647.562 2355.04,2647.356 2324.215,2593.556 
	2355.396,2539.959 2417.402,2540.164 2448.227,2593.964 "/>
<polygon fill="none" stroke="#000000" stroke-miterlimit="10" points="2428.631,2628.761 2366.624,2628.556 2335.799,2574.755 
	2366.98,2521.158 2428.986,2521.363 2459.811,2575.163 "/>
<polygon fill="none" stroke="#000000" stroke-miterlimit="10" points="2404.54,2701.636 2342.533,2701.431 2311.708,2647.63 
	2342.889,2594.033 2404.895,2594.238 2435.72,2648.038 "/>
<polygon fill="none" stroke="#000000" stroke-miterlimit="10" points="2363.712,2701.636 2301.705,2701.431 2270.88,2647.63 
	2302.061,2594.033 2364.067,2594.238 2394.892,2648.038 "/>
<polygon fill="none" stroke="#000000" stroke-miterlimit="10" points="2314.035,2613.103 2252.028,2612.897 2221.204,2559.097 
	2252.384,2505.5 2314.39,2505.705 2345.215,2559.505 "/>
<polygon fill="none" stroke="#000000" stroke-miterlimit="10" points="2328.381,2536.322 2266.375,2536.117 2235.55,2482.316 
	2266.73,2428.719 2328.736,2428.924 2359.562,2482.724 "/>
<polygon fill="none" stroke="#000000" stroke-miterlimit="10" points="2264.116,2647.835 2202.109,2647.63 2171.285,2593.829 
	2202.465,2540.231 2264.471,2540.437 2295.296,2594.237 "/>
<polygon fill="none" stroke="#000000" stroke-miterlimit="10" points="2328.381,2758.801 2266.375,2758.596 2235.55,2704.795 
	2266.73,2651.197 2328.736,2651.402 2359.562,2705.203 "/>
<polygon fill="none" stroke="#000000" stroke-miterlimit="10" points="2456.057,2758.801 2394.05,2758.596 2363.226,2704.795 
	2394.406,2651.197 2456.412,2651.402 2487.237,2705.203 "/>
<polygon fill="none" stroke="#000000" stroke-miterlimit="10" points="2392.321,2758.801 2330.314,2758.596 2299.49,2704.795 
	2330.67,2651.197 2392.676,2651.402 2423.501,2705.203 "/>
<polygon fill="none" stroke="#000000" stroke-miterlimit="10" points="2490.637,2701.637 2428.63,2701.432 2397.805,2647.631 
	2428.986,2594.033 2490.992,2594.238 2521.817,2648.039 "/>
<polygon fill="none" stroke="#000000" stroke-miterlimit="10" points="2296.226,2701.637 2234.219,2701.432 2203.395,2647.631 
	2234.575,2594.033 2296.581,2594.238 2327.406,2648.039 "/>
<polygon fill="none" stroke="#000000" stroke-miterlimit="10" points="2296.226,2590.123 2234.219,2589.918 2203.395,2536.118 
	2234.575,2482.52 2296.581,2482.725 2327.406,2536.526 "/>
<polygon fill="none" stroke="#000000" stroke-miterlimit="10" points="2392.321,2536.322 2330.314,2536.117 2299.49,2482.316 
	2330.67,2428.719 2392.676,2428.924 2423.501,2482.725 "/>
<polygon fill="none" stroke="#000000" stroke-miterlimit="10" points="2358.232,2590.123 2296.225,2589.918 2265.4,2536.117 
	2296.581,2482.52 2358.587,2482.725 2389.412,2536.525 "/>
<polygon fill="none" stroke="#000000" stroke-miterlimit="10" points="2358.232,2593.761 2296.225,2593.556 2265.4,2539.755 
	2296.581,2486.157 2358.587,2486.362 2389.412,2540.163 "/>
<polygon fill="none" stroke="#000000" stroke-miterlimit="10" points="2369.812,2675.978 2307.805,2675.772 2276.98,2621.972 
	2308.161,2568.374 2370.167,2568.579 2400.992,2622.38 "/>
<polygon fill="none" stroke="#000000" stroke-miterlimit="10" points="2339.387,2622.176 2277.38,2621.971 2246.555,2568.17 
	2277.736,2514.572 2339.742,2514.777 2370.567,2568.578 "/>
<polygon fill="none" stroke="#000000" stroke-miterlimit="10" points="2384.279,2736.364 2322.272,2736.159 2291.447,2682.358 
	2322.628,2628.761 2384.634,2628.966 2415.459,2682.767 "/>
<polygon fill="none" stroke="#000000" stroke-miterlimit="10" points="2401.393,2675.978 2339.386,2675.772 2308.561,2621.972 
	2339.742,2568.374 2401.748,2568.579 2432.573,2622.38 "/>
<polygon fill="none" stroke="#000000" stroke-miterlimit="10" points="2463.398,2675.978 2401.392,2675.772 2370.567,2621.972 
	2401.748,2568.374 2463.753,2568.579 2494.579,2622.38 "/>
<polygon fill="none" stroke="#000000" stroke-miterlimit="10" points="2369.812,2729.779 2307.805,2729.574 2276.98,2675.773 
	2308.161,2622.176 2370.167,2622.381 2400.992,2676.182 "/>
<polygon fill="none" stroke="#000000" stroke-miterlimit="10" points="2446.285,2735.603 2384.278,2735.397 2353.453,2681.597 
	2384.634,2627.999 2446.64,2628.204 2477.465,2682.005 "/>
<polygon fill="none" stroke="#000000" stroke-miterlimit="10" points="2401.359,2675.64 2339.352,2675.435 2308.527,2621.634 
	2339.708,2568.036 2401.714,2568.241 2432.539,2622.042 "/>
<polygon fill="none" stroke="#000000" stroke-miterlimit="10" points="2552.195,2594.52 2742.406,2595.146 2836.967,2760.188 
	2741.318,2924.602 2551.107,2923.973 2456.545,2758.934 "/>
<polygon fill="none" stroke="#000000" stroke-miterlimit="10" points="2487.773,2705.486 2549.78,2705.691 2580.604,2759.492 
	2549.424,2813.09 2487.418,2812.885 2456.593,2759.084 "/>
<polygon fill="none" stroke="#000000" stroke-miterlimit="10" points="2550.351,2813.232 2613.398,2813.439 2644.74,2868.143 
	2613.036,2922.639 2549.99,2922.43 2518.646,2867.727 "/>
<polygon fill="none" stroke="#000000" stroke-miterlimit="10" points="2612.873,2705.486 2674.881,2705.691 2705.705,2759.492 
	2674.524,2813.09 2612.519,2812.885 2581.693,2759.084 "/>
<polygon fill="none" stroke="#000000" stroke-miterlimit="10" points="2674.879,2705.486 2736.887,2705.691 2767.711,2759.492 
	2736.53,2813.09 2674.524,2812.885 2643.699,2759.084 "/>
<polygon fill="none" stroke="#000000" stroke-miterlimit="10" points="2644.54,2759.43 2706.547,2759.635 2737.371,2813.436 
	2706.191,2867.033 2644.186,2866.828 2613.359,2813.027 "/>
<polygon fill="none" stroke="#000000" stroke-miterlimit="10" points="2570.205,2671.43 2632.212,2671.635 2663.037,2725.436 
	2631.855,2779.033 2569.85,2778.828 2539.025,2725.027 "/>
<polygon fill="none" stroke="#000000" stroke-miterlimit="10" points="2591.205,2705.76 2653.212,2705.965 2684.037,2759.766 
	2652.855,2813.361 2590.85,2813.156 2560.025,2759.357 "/>
<polygon fill="none" stroke="#000000" stroke-miterlimit="10" points="2579.621,2724.561 2641.628,2724.766 2672.453,2778.566 
	2641.271,2832.162 2579.266,2831.957 2548.441,2778.158 "/>
<polygon fill="none" stroke="#000000" stroke-miterlimit="10" points="2603.712,2651.686 2665.719,2651.891 2696.543,2705.691 
	2665.363,2759.287 2603.357,2759.082 2572.531,2705.283 "/>
<polygon fill="none" stroke="#000000" stroke-miterlimit="10" points="2644.54,2651.686 2706.547,2651.891 2737.371,2705.691 
	2706.191,2759.287 2644.186,2759.082 2613.359,2705.283 "/>
<polygon fill="none" stroke="#000000" stroke-miterlimit="10" points="2694.217,2740.219 2756.224,2740.424 2787.049,2794.225 
	2755.867,2847.82 2693.861,2847.615 2663.037,2793.816 "/>
<polygon fill="none" stroke="#000000" stroke-miterlimit="10" points="2679.871,2816.998 2741.877,2817.203 2772.702,2871.004 
	2741.521,2924.602 2679.516,2924.396 2648.69,2870.596 "/>
<polygon fill="none" stroke="#000000" stroke-miterlimit="10" points="2744.136,2705.486 2806.143,2705.691 2836.967,2759.492 
	2805.787,2813.09 2743.781,2812.885 2712.955,2759.084 "/>
<polygon fill="none" stroke="#000000" stroke-miterlimit="10" points="2679.871,2594.52 2741.877,2594.725 2772.702,2648.525 
	2741.521,2702.123 2679.516,2701.918 2648.69,2648.117 "/>
<polygon fill="none" stroke="#000000" stroke-miterlimit="10" points="2552.195,2594.52 2614.201,2594.725 2645.026,2648.525 
	2613.846,2702.123 2551.84,2701.918 2521.015,2648.117 "/>
<polygon fill="none" stroke="#000000" stroke-miterlimit="10" points="2615.931,2594.52 2677.938,2594.725 2708.762,2648.525 
	2677.582,2702.123 2615.576,2701.918 2584.75,2648.117 "/>
<polygon fill="none" stroke="#000000" stroke-miterlimit="10" points="2517.615,2651.684 2579.622,2651.889 2610.447,2705.689 
	2579.266,2759.287 2517.26,2759.082 2486.435,2705.281 "/>
<polygon fill="none" stroke="#000000" stroke-miterlimit="10" points="2712.025,2651.684 2774.033,2651.889 2804.857,2705.689 
	2773.677,2759.287 2711.671,2759.082 2680.846,2705.281 "/>
<polygon fill="none" stroke="#000000" stroke-miterlimit="10" points="2712.025,2763.197 2774.033,2763.402 2804.857,2817.203 
	2773.677,2870.801 2711.671,2870.596 2680.846,2816.795 "/>
<polygon fill="none" stroke="#000000" stroke-miterlimit="10" points="2615.931,2816.998 2677.938,2817.203 2708.762,2871.004 
	2677.582,2924.602 2615.576,2924.396 2584.75,2870.596 "/>
<polygon fill="none" stroke="#000000" stroke-miterlimit="10" points="2650.02,2763.197 2712.027,2763.402 2742.852,2817.203 
	2711.671,2870.801 2649.665,2870.596 2618.84,2816.795 "/>
<polygon fill="none" stroke="#000000" stroke-miterlimit="10" points="2650.02,2759.561 2712.027,2759.766 2742.852,2813.566 
	2711.671,2867.164 2649.665,2866.959 2618.84,2813.158 "/>
<polygon fill="none" stroke="#000000" stroke-miterlimit="10" points="2638.44,2677.344 2700.447,2677.549 2731.271,2731.35 
	2700.092,2784.947 2638.086,2784.742 2607.26,2730.941 "/>
<polygon fill="none" stroke="#000000" stroke-miterlimit="10" points="2668.865,2731.145 2730.872,2731.35 2761.697,2785.15 
	2730.516,2838.748 2668.51,2838.543 2637.686,2784.742 "/>
<polygon fill="none" stroke="#000000" stroke-miterlimit="10" points="2623.973,2616.957 2685.98,2617.162 2716.805,2670.963 
	2685.624,2724.561 2623.618,2724.355 2592.793,2670.555 "/>
<polygon fill="none" stroke="#000000" stroke-miterlimit="10" points="2606.859,2677.344 2668.866,2677.549 2699.691,2731.35 
	2668.51,2784.947 2606.504,2784.742 2575.68,2730.941 "/>
<polygon fill="none" stroke="#000000" stroke-miterlimit="10" points="2544.854,2677.344 2606.86,2677.549 2637.686,2731.35 
	2606.504,2784.947 2544.499,2784.742 2513.673,2730.941 "/>
<polygon fill="none" stroke="#000000" stroke-miterlimit="10" points="2638.44,2623.541 2700.447,2623.746 2731.271,2677.547 
	2700.092,2731.145 2638.086,2730.939 2607.26,2677.139 "/>
<polygon fill="none" stroke="#000000" stroke-miterlimit="10" points="2561.967,2617.719 2623.975,2617.924 2654.799,2671.725 
	2623.618,2725.322 2561.612,2725.117 2530.787,2671.316 "/>
<polygon fill="none" stroke="#000000" stroke-miterlimit="10" points="2606.893,2677.682 2668.9,2677.887 2699.725,2731.688 
	2668.544,2785.285 2606.538,2785.08 2575.713,2731.279 "/>
<polygon fill="none" stroke="#000000" stroke-miterlimit="10" points="2554.13,2264.438 2744.341,2265.065 2838.901,2430.106 
	2743.253,2594.52 2553.041,2593.891 2458.479,2428.852 "/>
<polygon fill="none" stroke="#000000" stroke-miterlimit="10" points="2489.708,2375.405 2551.714,2375.61 2582.539,2429.411 
	2551.358,2483.008 2489.353,2482.803 2458.527,2429.002 "/>
<polygon fill="none" stroke="#000000" stroke-miterlimit="10" points="2552.285,2483.151 2615.333,2483.358 2646.675,2538.061 
	2614.971,2592.557 2551.924,2592.348 2520.581,2537.645 "/>
<polygon fill="none" stroke="#000000" stroke-miterlimit="10" points="2614.808,2375.405 2676.815,2375.61 2707.64,2429.411 
	2676.459,2483.008 2614.453,2482.803 2583.628,2429.002 "/>
<polygon fill="none" stroke="#000000" stroke-miterlimit="10" points="2676.813,2375.405 2738.821,2375.61 2769.646,2429.411 
	2738.465,2483.008 2676.459,2482.803 2645.634,2429.002 "/>
<polygon fill="none" stroke="#000000" stroke-miterlimit="10" points="2646.475,2429.348 2708.481,2429.553 2739.306,2483.354 
	2708.126,2536.952 2646.12,2536.747 2615.294,2482.946 "/>
<polygon fill="none" stroke="#000000" stroke-miterlimit="10" points="2572.14,2341.349 2634.146,2341.554 2664.972,2395.354 
	2633.79,2448.952 2571.784,2448.747 2540.959,2394.946 "/>
<polygon fill="none" stroke="#000000" stroke-miterlimit="10" points="2593.14,2375.679 2655.146,2375.884 2685.972,2429.684 
	2654.79,2483.28 2592.784,2483.075 2561.96,2429.276 "/>
<polygon fill="none" stroke="#000000" stroke-miterlimit="10" points="2581.556,2394.479 2643.562,2394.684 2674.388,2448.485 
	2643.206,2502.081 2581.2,2501.875 2550.375,2448.077 "/>
<polygon fill="none" stroke="#000000" stroke-miterlimit="10" points="2605.646,2321.604 2667.653,2321.81 2698.478,2375.61 
	2667.298,2429.206 2605.292,2429 2574.466,2375.202 "/>
<polygon fill="none" stroke="#000000" stroke-miterlimit="10" points="2646.475,2321.604 2708.481,2321.81 2739.306,2375.61 
	2708.126,2429.206 2646.12,2429 2615.294,2375.202 "/>
<polygon fill="none" stroke="#000000" stroke-miterlimit="10" points="2696.151,2410.137 2758.158,2410.342 2788.983,2464.143 
	2757.802,2517.739 2695.796,2517.534 2664.972,2463.735 "/>
<polygon fill="none" stroke="#000000" stroke-miterlimit="10" points="2681.806,2486.917 2743.812,2487.122 2774.637,2540.922 
	2743.456,2594.52 2681.45,2594.314 2650.625,2540.514 "/>
<polygon fill="none" stroke="#000000" stroke-miterlimit="10" points="2746.07,2375.405 2808.077,2375.61 2838.901,2429.411 
	2807.722,2483.008 2745.716,2482.803 2714.89,2429.002 "/>
<polygon fill="none" stroke="#000000" stroke-miterlimit="10" points="2681.806,2264.438 2743.812,2264.644 2774.637,2318.444 
	2743.456,2372.042 2681.45,2371.837 2650.625,2318.036 "/>
<polygon fill="none" stroke="#000000" stroke-miterlimit="10" points="2554.13,2264.438 2616.136,2264.644 2646.961,2318.444 
	2615.78,2372.042 2553.774,2371.837 2522.949,2318.036 "/>
<polygon fill="none" stroke="#000000" stroke-miterlimit="10" points="2617.865,2264.438 2679.872,2264.644 2710.696,2318.444 
	2679.517,2372.042 2617.511,2371.837 2586.685,2318.036 "/>
<polygon fill="none" stroke="#000000" stroke-miterlimit="10" points="2519.55,2321.603 2581.557,2321.808 2612.382,2375.608 
	2581.2,2429.206 2519.195,2429 2488.37,2375.2 "/>
<polygon fill="none" stroke="#000000" stroke-miterlimit="10" points="2713.96,2321.603 2775.968,2321.808 2806.792,2375.608 
	2775.611,2429.206 2713.605,2429 2682.78,2375.2 "/>
<polygon fill="none" stroke="#000000" stroke-miterlimit="10" points="2713.96,2433.116 2775.968,2433.321 2806.792,2487.122 
	2775.611,2540.719 2713.605,2540.514 2682.78,2486.713 "/>
<polygon fill="none" stroke="#000000" stroke-miterlimit="10" points="2617.865,2486.917 2679.872,2487.122 2710.696,2540.922 
	2679.517,2594.52 2617.511,2594.314 2586.685,2540.514 "/>
<polygon fill="none" stroke="#000000" stroke-miterlimit="10" points="2651.954,2433.116 2713.962,2433.321 2744.786,2487.122 
	2713.605,2540.719 2651.6,2540.514 2620.774,2486.713 "/>
<polygon fill="none" stroke="#000000" stroke-miterlimit="10" points="2651.954,2429.479 2713.962,2429.684 2744.786,2483.485 
	2713.605,2537.083 2651.6,2536.877 2620.774,2483.077 "/>
<polygon fill="none" stroke="#000000" stroke-miterlimit="10" points="2640.375,2347.263 2702.382,2347.468 2733.206,2401.268 
	2702.026,2454.866 2640.021,2454.661 2609.194,2400.86 "/>
<polygon fill="none" stroke="#000000" stroke-miterlimit="10" points="2670.8,2401.063 2732.807,2401.268 2763.632,2455.069 
	2732.45,2508.667 2670.444,2508.461 2639.62,2454.661 "/>
<polygon fill="none" stroke="#000000" stroke-miterlimit="10" points="2625.907,2286.876 2687.915,2287.081 2718.739,2340.882 
	2687.559,2394.479 2625.553,2394.274 2594.728,2340.474 "/>
<polygon fill="none" stroke="#000000" stroke-miterlimit="10" points="2608.794,2347.263 2670.801,2347.468 2701.626,2401.268 
	2670.444,2454.866 2608.438,2454.661 2577.614,2400.86 "/>
<polygon fill="none" stroke="#000000" stroke-miterlimit="10" points="2546.788,2347.263 2608.795,2347.468 2639.62,2401.268 
	2608.438,2454.866 2546.433,2454.661 2515.608,2400.86 "/>
<polygon fill="none" stroke="#000000" stroke-miterlimit="10" points="2640.375,2293.46 2702.382,2293.665 2733.206,2347.466 
	2702.026,2401.063 2640.021,2400.858 2609.194,2347.058 "/>
<polygon fill="none" stroke="#000000" stroke-miterlimit="10" points="2563.901,2287.638 2625.909,2287.843 2656.733,2341.644 
	2625.553,2395.241 2563.547,2395.036 2532.722,2341.235 "/>
<polygon fill="none" stroke="#000000" stroke-miterlimit="10" points="2608.827,2347.601 2670.835,2347.806 2701.659,2401.606 
	2670.479,2455.204 2608.473,2454.999 2577.647,2401.198 "/>
<polygon fill="none" stroke="#000000" stroke-miterlimit="10" points="2265.001,2759.562 2455.212,2760.188 2549.772,2925.229 
	2454.124,3089.644 2263.913,3089.015 2169.351,2923.976 "/>
<polygon fill="none" stroke="#000000" stroke-miterlimit="10" points="2200.579,2870.528 2262.585,2870.733 2293.41,2924.534 
	2262.229,2978.132 2200.224,2977.927 2169.398,2924.126 "/>
<polygon fill="none" stroke="#000000" stroke-miterlimit="10" points="2263.156,2978.274 2326.204,2978.481 2357.546,3033.185 
	2325.842,3087.681 2262.795,3087.472 2231.452,3032.769 "/>
<polygon fill="none" stroke="#000000" stroke-miterlimit="10" points="2325.679,2870.528 2387.687,2870.733 2418.511,2924.534 
	2387.33,2978.132 2325.324,2977.927 2294.499,2924.126 "/>
<polygon fill="none" stroke="#000000" stroke-miterlimit="10" points="2387.685,2870.528 2449.692,2870.733 2480.517,2924.534 
	2449.336,2978.132 2387.33,2977.927 2356.505,2924.126 "/>
<polygon fill="none" stroke="#000000" stroke-miterlimit="10" points="2357.346,2924.472 2419.353,2924.677 2450.177,2978.478 
	2418.997,3032.075 2356.991,3031.87 2326.165,2978.069 "/>
<polygon fill="none" stroke="#000000" stroke-miterlimit="10" points="2283.011,2836.472 2345.018,2836.677 2375.843,2890.478 
	2344.661,2944.075 2282.655,2943.87 2251.831,2890.069 "/>
<polygon fill="none" stroke="#000000" stroke-miterlimit="10" points="2304.011,2870.802 2366.018,2871.007 2396.843,2924.808 
	2365.661,2978.403 2303.655,2978.198 2272.831,2924.399 "/>
<polygon fill="none" stroke="#000000" stroke-miterlimit="10" points="2292.427,2889.603 2354.434,2889.808 2385.259,2943.608 
	2354.077,2997.204 2292.071,2996.999 2261.247,2943.2 "/>
<polygon fill="none" stroke="#000000" stroke-miterlimit="10" points="2316.518,2816.728 2378.524,2816.933 2409.349,2870.733 
	2378.169,2924.329 2316.163,2924.124 2285.337,2870.325 "/>
<polygon fill="none" stroke="#000000" stroke-miterlimit="10" points="2357.346,2816.728 2419.353,2816.933 2450.177,2870.733 
	2418.997,2924.329 2356.991,2924.124 2326.165,2870.325 "/>
<polygon fill="none" stroke="#000000" stroke-miterlimit="10" points="2407.022,2905.261 2469.029,2905.466 2499.854,2959.267 
	2468.673,3012.862 2406.667,3012.657 2375.843,2958.858 "/>
<polygon fill="none" stroke="#000000" stroke-miterlimit="10" points="2392.677,2982.04 2454.683,2982.245 2485.508,3036.046 
	2454.327,3089.644 2392.321,3089.438 2361.496,3035.638 "/>
<polygon fill="none" stroke="#000000" stroke-miterlimit="10" points="2456.941,2870.528 2518.948,2870.733 2549.772,2924.534 
	2518.593,2978.132 2456.587,2977.927 2425.761,2924.126 "/>
<polygon fill="none" stroke="#000000" stroke-miterlimit="10" points="2392.677,2759.562 2454.683,2759.767 2485.508,2813.567 
	2454.327,2867.165 2392.321,2866.96 2361.496,2813.159 "/>
<polygon fill="none" stroke="#000000" stroke-miterlimit="10" points="2265.001,2759.562 2327.007,2759.767 2357.832,2813.567 
	2326.651,2867.165 2264.646,2866.96 2233.82,2813.159 "/>
<polygon fill="none" stroke="#000000" stroke-miterlimit="10" points="2328.736,2759.562 2390.743,2759.767 2421.567,2813.567 
	2390.388,2867.165 2328.382,2866.96 2297.556,2813.159 "/>
<polygon fill="none" stroke="#000000" stroke-miterlimit="10" points="2230.421,2816.726 2292.428,2816.931 2323.253,2870.731 
	2292.071,2924.329 2230.066,2924.124 2199.241,2870.323 "/>
<polygon fill="none" stroke="#000000" stroke-miterlimit="10" points="2424.831,2816.726 2486.839,2816.931 2517.663,2870.731 
	2486.482,2924.329 2424.477,2924.124 2393.651,2870.323 "/>
<polygon fill="none" stroke="#000000" stroke-miterlimit="10" points="2424.831,2928.239 2486.839,2928.444 2517.663,2982.245 
	2486.482,3035.843 2424.477,3035.638 2393.651,2981.837 "/>
<polygon fill="none" stroke="#000000" stroke-miterlimit="10" points="2328.736,2982.04 2390.743,2982.245 2421.567,3036.046 
	2390.388,3089.644 2328.382,3089.438 2297.556,3035.638 "/>
<polygon fill="none" stroke="#000000" stroke-miterlimit="10" points="2362.825,2928.239 2424.833,2928.444 2455.657,2982.245 
	2424.477,3035.843 2362.471,3035.638 2331.646,2981.837 "/>
<polygon fill="none" stroke="#000000" stroke-miterlimit="10" points="2362.825,2924.603 2424.833,2924.808 2455.657,2978.608 
	2424.477,3032.206 2362.471,3032.001 2331.646,2978.2 "/>
<polygon fill="none" stroke="#000000" stroke-miterlimit="10" points="2351.246,2842.386 2413.253,2842.591 2444.077,2896.392 
	2412.897,2949.989 2350.892,2949.784 2320.065,2895.983 "/>
<polygon fill="none" stroke="#000000" stroke-miterlimit="10" points="2381.671,2896.187 2443.678,2896.392 2474.503,2950.192 
	2443.321,3003.79 2381.315,3003.585 2350.491,2949.784 "/>
<polygon fill="none" stroke="#000000" stroke-miterlimit="10" points="2336.778,2781.999 2398.786,2782.204 2429.61,2836.005 
	2398.43,2889.603 2336.424,2889.397 2305.599,2835.597 "/>
<polygon fill="none" stroke="#000000" stroke-miterlimit="10" points="2319.665,2842.386 2381.672,2842.591 2412.497,2896.392 
	2381.315,2949.989 2319.31,2949.784 2288.485,2895.983 "/>
<polygon fill="none" stroke="#000000" stroke-miterlimit="10" points="2257.659,2842.386 2319.666,2842.591 2350.491,2896.392 
	2319.31,2949.989 2257.304,2949.784 2226.479,2895.983 "/>
<polygon fill="none" stroke="#000000" stroke-miterlimit="10" points="2351.246,2788.583 2413.253,2788.788 2444.077,2842.589 
	2412.897,2896.187 2350.892,2895.981 2320.065,2842.181 "/>
<polygon fill="none" stroke="#000000" stroke-miterlimit="10" points="2274.772,2782.761 2336.78,2782.966 2367.604,2836.767 
	2336.424,2890.364 2274.418,2890.159 2243.593,2836.358 "/>
<polygon fill="none" stroke="#000000" stroke-miterlimit="10" points="2319.698,2842.724 2381.706,2842.929 2412.53,2896.729 
	2381.35,2950.327 2319.344,2950.122 2288.519,2896.321 "/>
<polygon fill="none" stroke="#000000" stroke-miterlimit="10" points="1884.978,2759.428 1979.54,2594.39 2169.752,2593.761 
	2265.4,2758.173 2170.839,2923.215 1980.627,2923.842 "/>
<polygon fill="none" stroke="#000000" stroke-miterlimit="10" points="1885.025,2759.277 1915.851,2705.477 1977.857,2705.271 
	2009.037,2758.869 1978.211,2812.669 1916.206,2812.875 "/>
<polygon fill="none" stroke="#000000" stroke-miterlimit="10" points="1947.079,2650.635 1978.423,2595.932 2041.469,2595.722 
	2073.174,2650.218 2041.832,2704.922 1978.783,2705.129 "/>
<polygon fill="none" stroke="#000000" stroke-miterlimit="10" points="2010.126,2759.277 2040.951,2705.476 2102.957,2705.271 
	2134.137,2758.869 2103.314,2812.67 2041.306,2812.876 "/>
<polygon fill="none" stroke="#000000" stroke-miterlimit="10" points="2072.132,2759.277 2102.957,2705.476 2164.963,2705.271 
	2196.145,2758.868 2165.318,2812.67 2103.312,2812.874 "/>
<polygon fill="none" stroke="#000000" stroke-miterlimit="10" points="2041.791,2705.335 2072.619,2651.532 2134.624,2651.328 
	2165.805,2704.925 2134.979,2758.726 2072.973,2758.931 "/>
<polygon fill="none" stroke="#000000" stroke-miterlimit="10" points="1967.457,2793.333 1998.283,2739.532 2060.289,2739.327 
	2091.469,2792.925 2060.645,2846.728 1998.638,2846.932 "/>
<polygon fill="none" stroke="#000000" stroke-miterlimit="10" points="1988.459,2759.003 2019.283,2705.205 2081.288,2705 
	2112.471,2758.596 2081.646,2812.396 2019.639,2812.601 "/>
<polygon fill="none" stroke="#000000" stroke-miterlimit="10" points="1976.875,2740.202 2007.697,2686.403 2069.703,2686.198 
	2100.885,2739.794 2070.061,2793.595 2008.053,2793.8 "/>
<polygon fill="none" stroke="#000000" stroke-miterlimit="10" points="2000.964,2813.078 2031.79,2759.279 2093.796,2759.073 
	2124.975,2812.67 2094.151,2866.47 2032.145,2866.675 "/>
<polygon fill="none" stroke="#000000" stroke-miterlimit="10" points="2041.792,2813.077 2072.619,2759.278 2134.625,2759.075 
	2165.805,2812.67 2134.979,2866.471 2072.973,2866.675 "/>
<polygon fill="none" stroke="#000000" stroke-miterlimit="10" points="2091.469,2724.544 2122.295,2670.745 2184.301,2670.542 
	2215.482,2724.136 2184.656,2777.938 2122.648,2778.144 "/>
<polygon fill="none" stroke="#000000" stroke-miterlimit="10" points="2077.123,2647.766 2107.948,2593.965 2169.953,2593.759 
	2201.135,2647.356 2170.311,2701.157 2108.305,2701.362 "/>
<polygon fill="none" stroke="#000000" stroke-miterlimit="10" points="2141.387,2759.278 2172.213,2705.476 2234.221,2705.271 
	2265.398,2758.868 2234.575,2812.67 2172.568,2812.875 "/>
<polygon fill="none" stroke="#000000" stroke-miterlimit="10" points="2077.123,2870.243 2107.949,2816.442 2169.954,2816.238 
	2201.135,2869.835 2170.31,2923.636 2108.304,2923.842 "/>
<polygon fill="none" stroke="#000000" stroke-miterlimit="10" points="1949.447,2870.243 1980.271,2816.442 2042.279,2816.237 
	2073.459,2869.836 2042.634,2923.637 1980.627,2923.842 "/>
<polygon fill="none" stroke="#000000" stroke-miterlimit="10" points="2013.184,2870.243 2044.008,2816.442 2106.016,2816.237 
	2137.194,2869.835 2106.371,2923.638 2044.363,2923.842 "/>
<polygon fill="none" stroke="#000000" stroke-miterlimit="10" points="1914.869,2813.08 1945.691,2759.279 2007.698,2759.074 
	2038.881,2812.671 2008.055,2866.472 1946.048,2866.677 "/>
<polygon fill="none" stroke="#000000" stroke-miterlimit="10" points="2109.279,2813.08 2140.104,2759.279 2202.109,2759.074 
	2233.291,2812.671 2202.465,2866.472 2140.458,2866.677 "/>
<polygon fill="none" stroke="#000000" stroke-miterlimit="10" points="2109.278,2701.566 2140.104,2647.766 2202.109,2647.562 
	2233.29,2701.157 2202.466,2754.958 2140.457,2755.163 "/>
<polygon fill="none" stroke="#000000" stroke-miterlimit="10" points="2013.183,2647.765 2044.009,2593.965 2106.016,2593.76 
	2137.194,2647.357 2106.37,2701.158 2044.363,2701.362 "/>
<polygon fill="none" stroke="#000000" stroke-miterlimit="10" points="2047.272,2701.566 2078.098,2647.766 2140.104,2647.56 
	2171.284,2701.157 2140.461,2754.958 2078.452,2755.163 "/>
<polygon fill="none" stroke="#000000" stroke-miterlimit="10" points="2047.272,2705.203 2078.098,2651.401 2140.104,2651.196 
	2171.285,2704.794 2140.459,2758.595 2078.452,2758.8 "/>
<polygon fill="none" stroke="#000000" stroke-miterlimit="10" points="2035.693,2787.419 2066.519,2733.619 2128.524,2733.413 
	2159.704,2787.012 2128.879,2840.812 2066.873,2841.018 "/>
<polygon fill="none" stroke="#000000" stroke-miterlimit="10" points="2066.117,2733.618 2096.943,2679.818 2158.949,2679.612 
	2190.13,2733.211 2159.305,2787.012 2097.298,2787.217 "/>
<polygon fill="none" stroke="#000000" stroke-miterlimit="10" points="2021.226,2847.807 2052.051,2794.005 2114.057,2793.8 
	2145.238,2847.397 2114.412,2901.199 2052.405,2901.403 "/>
<polygon fill="none" stroke="#000000" stroke-miterlimit="10" points="2004.112,2787.42 2034.936,2733.618 2096.942,2733.414 
	2128.124,2787.012 2097.299,2840.812 2035.291,2841.017 "/>
<polygon fill="none" stroke="#000000" stroke-miterlimit="10" points="1942.106,2787.42 1972.932,2733.619 2034.938,2733.413 
	2066.118,2787.012 2035.293,2840.812 1973.285,2841.017 "/>
<polygon fill="none" stroke="#000000" stroke-miterlimit="10" points="2035.691,2841.222 2066.518,2787.423 2128.524,2787.217 
	2159.703,2840.813 2128.879,2894.614 2066.873,2894.819 "/>
<polygon fill="none" stroke="#000000" stroke-miterlimit="10" points="1959.219,2847.044 1990.045,2793.243 2052.051,2793.038 
	2083.231,2846.637 2052.407,2900.438 1990.399,2900.643 "/>
<polygon fill="none" stroke="#000000" stroke-miterlimit="10" points="2004.145,2787.081 2034.971,2733.28 2096.977,2733.076 
	2128.158,2786.673 2097.332,2840.476 2035.326,2840.679 "/>
<polygon fill="none" stroke="#000000" stroke-miterlimit="10" points="2744.785,2596.35 2839.348,2431.311 3029.561,2430.682 
	3125.209,2595.094 3030.646,2760.137 2840.436,2760.764 "/>
<polygon fill="none" stroke="#000000" stroke-miterlimit="10" points="2744.834,2596.199 2775.658,2542.398 2837.666,2542.192 
	2868.846,2595.791 2838.02,2649.59 2776.014,2649.797 "/>
<polygon fill="none" stroke="#000000" stroke-miterlimit="10" points="2806.887,2487.556 2838.23,2432.853 2901.277,2432.643 
	2932.982,2487.139 2901.641,2541.843 2838.592,2542.05 "/>
<polygon fill="none" stroke="#000000" stroke-miterlimit="10" points="2869.934,2596.199 2900.76,2542.397 2962.766,2542.192 
	2993.945,2595.791 2963.123,2649.592 2901.113,2649.797 "/>
<polygon fill="none" stroke="#000000" stroke-miterlimit="10" points="2931.939,2596.199 2962.766,2542.397 3024.771,2542.192 
	3055.953,2595.789 3025.127,2649.592 2963.119,2649.795 "/>
<polygon fill="none" stroke="#000000" stroke-miterlimit="10" points="2901.6,2542.256 2932.428,2488.454 2994.432,2488.25 
	3025.613,2541.846 2994.787,2595.646 2932.781,2595.852 "/>
<polygon fill="none" stroke="#000000" stroke-miterlimit="10" points="2827.266,2630.254 2858.092,2576.453 2920.098,2576.248 
	2951.277,2629.846 2920.453,2683.648 2858.445,2683.854 "/>
<polygon fill="none" stroke="#000000" stroke-miterlimit="10" points="2848.268,2595.924 2879.092,2542.126 2941.096,2541.921 
	2972.279,2595.518 2941.453,2649.318 2879.447,2649.521 "/>
<polygon fill="none" stroke="#000000" stroke-miterlimit="10" points="2836.684,2577.123 2867.506,2523.325 2929.512,2523.12 
	2960.693,2576.715 2929.869,2630.516 2867.861,2630.721 "/>
<polygon fill="none" stroke="#000000" stroke-miterlimit="10" points="2860.771,2650 2891.598,2596.201 2953.604,2595.994 
	2984.783,2649.592 2953.959,2703.391 2891.953,2703.596 "/>
<polygon fill="none" stroke="#000000" stroke-miterlimit="10" points="2901.6,2649.998 2932.428,2596.199 2994.434,2595.996 
	3025.613,2649.592 2994.787,2703.393 2932.781,2703.596 "/>
<polygon fill="none" stroke="#000000" stroke-miterlimit="10" points="2951.277,2561.465 2982.104,2507.667 3044.109,2507.463 
	3075.291,2561.057 3044.465,2614.859 2982.457,2615.064 "/>
<polygon fill="none" stroke="#000000" stroke-miterlimit="10" points="2936.932,2484.687 2967.756,2430.886 3029.762,2430.68 
	3060.943,2484.278 3030.119,2538.079 2968.113,2538.284 "/>
<polygon fill="none" stroke="#000000" stroke-miterlimit="10" points="3001.195,2596.199 3032.021,2542.397 3094.029,2542.192 
	3125.207,2595.789 3094.383,2649.592 3032.377,2649.797 "/>
<polygon fill="none" stroke="#000000" stroke-miterlimit="10" points="2936.932,2707.164 2967.758,2653.363 3029.762,2653.16 
	3060.943,2706.756 3030.117,2760.557 2968.111,2760.764 "/>
<polygon fill="none" stroke="#000000" stroke-miterlimit="10" points="2809.256,2707.164 2840.08,2653.363 2902.088,2653.158 
	2933.268,2706.758 2902.441,2760.559 2840.436,2760.764 "/>
<polygon fill="none" stroke="#000000" stroke-miterlimit="10" points="2872.992,2707.164 2903.816,2653.363 2965.824,2653.158 
	2997.002,2706.756 2966.18,2760.559 2904.172,2760.764 "/>
<polygon fill="none" stroke="#000000" stroke-miterlimit="10" points="2774.678,2650.002 2805.5,2596.201 2867.506,2595.996 
	2898.689,2649.592 2867.863,2703.393 2805.855,2703.598 "/>
<polygon fill="none" stroke="#000000" stroke-miterlimit="10" points="2969.088,2650.002 2999.912,2596.201 3061.918,2595.996 
	3093.1,2649.592 3062.273,2703.393 3000.266,2703.598 "/>
<polygon fill="none" stroke="#000000" stroke-miterlimit="10" points="2969.086,2538.488 2999.912,2484.687 3061.918,2484.483 
	3093.098,2538.079 3062.273,2591.879 3000.266,2592.084 "/>
<polygon fill="none" stroke="#000000" stroke-miterlimit="10" points="2872.99,2484.686 2903.816,2430.886 2965.824,2430.681 
	2997.002,2484.279 2966.178,2538.08 2904.172,2538.284 "/>
<polygon fill="none" stroke="#000000" stroke-miterlimit="10" points="2907.08,2538.488 2937.906,2484.687 2999.912,2484.481 
	3031.092,2538.079 3000.27,2591.879 2938.26,2592.084 "/>
<polygon fill="none" stroke="#000000" stroke-miterlimit="10" points="2907.08,2542.125 2937.906,2488.323 2999.912,2488.118 
	3031.094,2541.715 3000.268,2595.516 2938.26,2595.721 "/>
<polygon fill="none" stroke="#000000" stroke-miterlimit="10" points="2895.502,2624.34 2926.326,2570.541 2988.332,2570.334 
	3019.512,2623.934 2988.688,2677.732 2926.682,2677.939 "/>
<polygon fill="none" stroke="#000000" stroke-miterlimit="10" points="2925.926,2570.539 2956.752,2516.74 3018.758,2516.534 
	3049.938,2570.133 3019.113,2623.934 2957.105,2624.139 "/>
<polygon fill="none" stroke="#000000" stroke-miterlimit="10" points="2881.033,2684.729 2911.859,2630.926 2973.865,2630.721 
	3005.047,2684.318 2974.221,2738.121 2912.213,2738.324 "/>
<polygon fill="none" stroke="#000000" stroke-miterlimit="10" points="2863.92,2624.342 2894.744,2570.539 2956.75,2570.336 
	2987.932,2623.934 2957.107,2677.732 2895.1,2677.938 "/>
<polygon fill="none" stroke="#000000" stroke-miterlimit="10" points="2801.914,2624.342 2832.74,2570.541 2894.746,2570.334 
	2925.926,2623.934 2895.102,2677.732 2833.094,2677.938 "/>
<polygon fill="none" stroke="#000000" stroke-miterlimit="10" points="2895.5,2678.143 2926.326,2624.344 2988.332,2624.139 
	3019.512,2677.734 2988.688,2731.535 2926.682,2731.74 "/>
<polygon fill="none" stroke="#000000" stroke-miterlimit="10" points="2819.027,2683.965 2849.854,2630.164 2911.859,2629.959 
	2943.039,2683.559 2912.215,2737.359 2850.207,2737.564 "/>
<polygon fill="none" stroke="#000000" stroke-miterlimit="10" points="2863.953,2624.002 2894.779,2570.201 2956.785,2569.998 
	2987.967,2623.594 2957.141,2677.396 2895.135,2677.6 "/>
<polygon fill="none" stroke="#000000" stroke-miterlimit="10" points="2081.046,2760.947 2175.608,2595.909 2365.82,2595.28 
	2461.469,2759.692 2366.907,2924.734 2176.695,2925.361 "/>
<polygon fill="none" stroke="#000000" stroke-miterlimit="10" points="2081.094,2760.797 2111.919,2706.996 2173.926,2706.79 
	2205.105,2760.389 2174.279,2814.188 2112.274,2814.395 "/>
<polygon fill="none" stroke="#000000" stroke-miterlimit="10" points="2143.147,2652.154 2174.491,2597.451 2237.537,2597.241 
	2269.242,2651.737 2237.9,2706.441 2174.852,2706.648 "/>
<polygon fill="none" stroke="#000000" stroke-miterlimit="10" points="2206.194,2760.797 2237.02,2706.995 2299.025,2706.79 
	2330.205,2760.389 2299.383,2814.189 2237.374,2814.396 "/>
<polygon fill="none" stroke="#000000" stroke-miterlimit="10" points="2268.2,2760.797 2299.025,2706.995 2361.031,2706.79 
	2392.213,2760.388 2361.387,2814.189 2299.38,2814.394 "/>
<polygon fill="none" stroke="#000000" stroke-miterlimit="10" points="2237.859,2706.854 2268.688,2653.052 2330.692,2652.848 
	2361.873,2706.444 2331.048,2760.245 2269.041,2760.45 "/>
<polygon fill="none" stroke="#000000" stroke-miterlimit="10" points="2163.525,2794.853 2194.352,2741.052 2256.357,2740.847 
	2287.537,2794.444 2256.713,2848.247 2194.706,2848.451 "/>
<polygon fill="none" stroke="#000000" stroke-miterlimit="10" points="2184.527,2760.522 2215.352,2706.725 2277.356,2706.52 
	2308.539,2760.115 2277.714,2813.916 2215.707,2814.12 "/>
<polygon fill="none" stroke="#000000" stroke-miterlimit="10" points="2172.943,2741.722 2203.766,2687.923 2265.771,2687.718 
	2296.953,2741.313 2266.129,2795.114 2204.121,2795.319 "/>
<polygon fill="none" stroke="#000000" stroke-miterlimit="10" points="2197.032,2814.598 2227.858,2760.799 2289.864,2760.593 
	2321.043,2814.189 2290.22,2867.989 2228.213,2868.194 "/>
<polygon fill="none" stroke="#000000" stroke-miterlimit="10" points="2237.86,2814.597 2268.688,2760.798 2330.693,2760.595 
	2361.873,2814.189 2331.048,2867.99 2269.041,2868.194 "/>
<polygon fill="none" stroke="#000000" stroke-miterlimit="10" points="2287.537,2726.063 2318.363,2672.265 2380.369,2672.062 
	2411.551,2725.655 2380.725,2779.457 2318.717,2779.663 "/>
<polygon fill="none" stroke="#000000" stroke-miterlimit="10" points="2273.191,2649.285 2304.017,2595.484 2366.021,2595.278 
	2397.203,2648.876 2366.379,2702.677 2304.373,2702.882 "/>
<polygon fill="none" stroke="#000000" stroke-miterlimit="10" points="2337.455,2760.798 2368.281,2706.995 2430.289,2706.79 
	2461.467,2760.388 2430.644,2814.189 2368.637,2814.395 "/>
<polygon fill="none" stroke="#000000" stroke-miterlimit="10" points="2273.191,2871.763 2304.018,2817.962 2366.022,2817.758 
	2397.203,2871.354 2366.378,2925.155 2304.372,2925.361 "/>
<polygon fill="none" stroke="#000000" stroke-miterlimit="10" points="2145.516,2871.763 2176.34,2817.962 2238.348,2817.757 
	2269.527,2871.355 2238.702,2925.156 2176.695,2925.361 "/>
<polygon fill="none" stroke="#000000" stroke-miterlimit="10" points="2209.252,2871.763 2240.076,2817.962 2302.084,2817.757 
	2333.263,2871.354 2302.439,2925.157 2240.432,2925.361 "/>
<polygon fill="none" stroke="#000000" stroke-miterlimit="10" points="2110.938,2814.6 2141.76,2760.799 2203.767,2760.594 
	2234.949,2814.19 2204.123,2867.991 2142.116,2868.196 "/>
<polygon fill="none" stroke="#000000" stroke-miterlimit="10" points="2305.348,2814.6 2336.173,2760.799 2398.178,2760.594 
	2429.359,2814.19 2398.533,2867.991 2336.526,2868.196 "/>
<polygon fill="none" stroke="#000000" stroke-miterlimit="10" points="2305.347,2703.086 2336.172,2649.285 2398.178,2649.081 
	2429.358,2702.677 2398.534,2756.478 2336.525,2756.683 "/>
<polygon fill="none" stroke="#000000" stroke-miterlimit="10" points="2209.251,2649.284 2240.077,2595.484 2302.084,2595.279 
	2333.263,2648.877 2302.438,2702.678 2240.432,2702.882 "/>
<polygon fill="none" stroke="#000000" stroke-miterlimit="10" points="2243.341,2703.086 2274.166,2649.285 2336.172,2649.079 
	2367.353,2702.677 2336.529,2756.478 2274.521,2756.683 "/>
<polygon fill="none" stroke="#000000" stroke-miterlimit="10" points="2243.341,2706.723 2274.166,2652.921 2336.172,2652.716 
	2367.354,2706.313 2336.527,2760.114 2274.521,2760.319 "/>
<polygon fill="none" stroke="#000000" stroke-miterlimit="10" points="2231.762,2788.938 2262.587,2735.139 2324.593,2734.933 
	2355.772,2788.531 2324.947,2842.331 2262.941,2842.537 "/>
<polygon fill="none" stroke="#000000" stroke-miterlimit="10" points="2262.186,2735.138 2293.012,2681.338 2355.018,2681.132 
	2386.198,2734.73 2355.373,2788.531 2293.366,2788.736 "/>
<polygon fill="none" stroke="#000000" stroke-miterlimit="10" points="2217.294,2849.326 2248.119,2795.524 2310.125,2795.319 
	2341.307,2848.917 2310.48,2902.719 2248.474,2902.923 "/>
<polygon fill="none" stroke="#000000" stroke-miterlimit="10" points="2200.181,2788.939 2231.004,2735.138 2293.011,2734.934 
	2324.192,2788.531 2293.367,2842.331 2231.359,2842.536 "/>
<polygon fill="none" stroke="#000000" stroke-miterlimit="10" points="2138.175,2788.939 2169,2735.139 2231.006,2734.933 
	2262.187,2788.531 2231.361,2842.331 2169.354,2842.536 "/>
<polygon fill="none" stroke="#000000" stroke-miterlimit="10" points="2231.76,2842.741 2262.586,2788.942 2324.593,2788.736 
	2355.771,2842.333 2324.947,2896.134 2262.941,2896.339 "/>
<polygon fill="none" stroke="#000000" stroke-miterlimit="10" points="2155.287,2848.563 2186.113,2794.763 2248.119,2794.558 
	2279.3,2848.156 2248.476,2901.957 2186.468,2902.162 "/>
<polygon fill="none" stroke="#000000" stroke-miterlimit="10" points="2200.213,2788.601 2231.039,2734.8 2293.045,2734.596 
	2324.227,2788.192 2293.4,2841.995 2231.395,2842.198 "/>
<polygon fill="none" stroke="#000000" stroke-miterlimit="10" points="2361.495,2595.148 2456.058,2430.11 2646.27,2429.481 
	2741.918,2593.894 2647.356,2758.936 2457.145,2759.562 "/>
<polygon fill="none" stroke="#000000" stroke-miterlimit="10" points="2361.543,2594.998 2392.368,2541.197 2454.375,2540.991 
	2485.555,2594.59 2454.729,2648.39 2392.724,2648.596 "/>
<polygon fill="none" stroke="#000000" stroke-miterlimit="10" points="2423.597,2486.355 2454.94,2431.652 2517.986,2431.442 
	2549.691,2485.938 2518.35,2540.643 2455.301,2540.85 "/>
<polygon fill="none" stroke="#000000" stroke-miterlimit="10" points="2486.644,2594.998 2517.469,2541.196 2579.475,2540.991 
	2610.654,2594.59 2579.832,2648.391 2517.823,2648.597 "/>
<polygon fill="none" stroke="#000000" stroke-miterlimit="10" points="2548.649,2594.998 2579.475,2541.196 2641.48,2540.991 
	2672.662,2594.589 2641.836,2648.391 2579.829,2648.595 "/>
<polygon fill="none" stroke="#000000" stroke-miterlimit="10" points="2518.309,2541.056 2549.137,2487.253 2611.142,2487.049 
	2642.322,2540.646 2611.497,2594.446 2549.49,2594.651 "/>
<polygon fill="none" stroke="#000000" stroke-miterlimit="10" points="2443.975,2629.054 2474.801,2575.253 2536.807,2575.048 
	2567.986,2628.646 2537.162,2682.448 2475.155,2682.652 "/>
<polygon fill="none" stroke="#000000" stroke-miterlimit="10" points="2464.977,2594.724 2495.801,2540.926 2557.806,2540.721 
	2588.988,2594.316 2558.163,2648.117 2496.156,2648.321 "/>
<polygon fill="none" stroke="#000000" stroke-miterlimit="10" points="2453.393,2575.923 2484.215,2522.124 2546.221,2521.919 
	2577.402,2575.515 2546.578,2629.315 2484.57,2629.521 "/>
<polygon fill="none" stroke="#000000" stroke-miterlimit="10" points="2477.481,2648.799 2508.308,2595 2570.313,2594.794 
	2601.492,2648.391 2570.669,2702.19 2508.662,2702.396 "/>
<polygon fill="none" stroke="#000000" stroke-miterlimit="10" points="2518.31,2648.798 2549.137,2594.999 2611.143,2594.796 
	2642.322,2648.391 2611.497,2702.191 2549.49,2702.396 "/>
<polygon fill="none" stroke="#000000" stroke-miterlimit="10" points="2567.986,2560.265 2598.812,2506.466 2660.818,2506.263 
	2692,2559.856 2661.174,2613.658 2599.166,2613.864 "/>
<polygon fill="none" stroke="#000000" stroke-miterlimit="10" points="2553.641,2483.486 2584.466,2429.686 2646.471,2429.479 
	2677.652,2483.077 2646.828,2536.878 2584.822,2537.083 "/>
<polygon fill="none" stroke="#000000" stroke-miterlimit="10" points="2617.904,2594.999 2648.73,2541.196 2710.738,2540.991 
	2741.916,2594.589 2711.093,2648.391 2649.086,2648.596 "/>
<polygon fill="none" stroke="#000000" stroke-miterlimit="10" points="2553.641,2705.964 2584.467,2652.163 2646.472,2651.959 
	2677.652,2705.556 2646.827,2759.356 2584.821,2759.562 "/>
<polygon fill="none" stroke="#000000" stroke-miterlimit="10" points="2425.965,2705.964 2456.789,2652.163 2518.797,2651.958 
	2549.977,2705.557 2519.151,2759.357 2457.145,2759.562 "/>
<polygon fill="none" stroke="#000000" stroke-miterlimit="10" points="2489.701,2705.964 2520.525,2652.163 2582.533,2651.958 
	2613.712,2705.556 2582.889,2759.358 2520.881,2759.562 "/>
<polygon fill="none" stroke="#000000" stroke-miterlimit="10" points="2391.387,2648.801 2422.209,2595 2484.216,2594.795 
	2515.398,2648.392 2484.572,2702.192 2422.565,2702.397 "/>
<polygon fill="none" stroke="#000000" stroke-miterlimit="10" points="2585.797,2648.801 2616.622,2595 2678.627,2594.795 
	2709.809,2648.392 2678.982,2702.192 2616.976,2702.397 "/>
<polygon fill="none" stroke="#000000" stroke-miterlimit="10" points="2585.796,2537.287 2616.621,2483.486 2678.627,2483.282 
	2709.808,2536.878 2678.983,2590.679 2616.975,2590.884 "/>
<polygon fill="none" stroke="#000000" stroke-miterlimit="10" points="2489.7,2483.485 2520.526,2429.686 2582.533,2429.48 
	2613.712,2483.078 2582.888,2536.879 2520.881,2537.083 "/>
<polygon fill="none" stroke="#000000" stroke-miterlimit="10" points="2523.79,2537.287 2554.615,2483.486 2616.621,2483.28 
	2647.802,2536.878 2616.979,2590.679 2554.97,2590.884 "/>
<polygon fill="none" stroke="#000000" stroke-miterlimit="10" points="2523.79,2540.924 2554.615,2487.122 2616.621,2486.917 
	2647.803,2540.515 2616.977,2594.315 2554.97,2594.521 "/>
<polygon fill="none" stroke="#000000" stroke-miterlimit="10" points="2512.211,2623.14 2543.036,2569.34 2605.042,2569.134 
	2636.222,2622.732 2605.396,2676.532 2543.391,2676.738 "/>
<polygon fill="none" stroke="#000000" stroke-miterlimit="10" points="2542.635,2569.339 2573.461,2515.539 2635.467,2515.333 
	2666.647,2568.932 2635.822,2622.732 2573.815,2622.938 "/>
<polygon fill="none" stroke="#000000" stroke-miterlimit="10" points="2497.743,2683.527 2528.568,2629.726 2590.574,2629.521 
	2621.756,2683.118 2590.93,2736.92 2528.923,2737.124 "/>
<polygon fill="none" stroke="#000000" stroke-miterlimit="10" points="2480.63,2623.141 2511.453,2569.339 2573.46,2569.135 
	2604.642,2622.732 2573.816,2676.532 2511.809,2676.737 "/>
<polygon fill="none" stroke="#000000" stroke-miterlimit="10" points="2418.624,2623.141 2449.449,2569.34 2511.455,2569.134 
	2542.636,2622.732 2511.811,2676.532 2449.803,2676.737 "/>
<polygon fill="none" stroke="#000000" stroke-miterlimit="10" points="2512.209,2676.942 2543.035,2623.144 2605.042,2622.938 
	2636.221,2676.534 2605.396,2730.335 2543.391,2730.54 "/>
<polygon fill="none" stroke="#000000" stroke-miterlimit="10" points="2435.736,2682.765 2466.562,2628.964 2528.568,2628.759 
	2559.749,2682.357 2528.925,2736.158 2466.917,2736.363 "/>
<polygon fill="none" stroke="#000000" stroke-miterlimit="10" points="2480.662,2622.802 2511.488,2569.001 2573.494,2568.797 
	2604.676,2622.394 2573.85,2676.196 2511.844,2676.399 "/>
<polygon fill="none" stroke="#000000" stroke-miterlimit="10" points="2554.622,2598.785 2649.185,2433.748 2839.396,2433.119 
	2935.045,2597.531 2840.483,2762.572 2650.271,2763.199 "/>
<polygon fill="none" stroke="#000000" stroke-miterlimit="10" points="2554.67,2598.635 2585.495,2544.834 2647.502,2544.628 
	2678.682,2598.227 2647.855,2652.027 2585.851,2652.232 "/>
<polygon fill="none" stroke="#000000" stroke-miterlimit="10" points="2616.724,2489.993 2648.067,2435.29 2711.113,2435.08 
	2742.818,2489.576 2711.477,2544.28 2648.428,2544.487 "/>
<polygon fill="none" stroke="#000000" stroke-miterlimit="10" points="2679.771,2598.635 2710.596,2544.833 2772.602,2544.628 
	2803.781,2598.227 2772.959,2652.027 2710.95,2652.234 "/>
<polygon fill="none" stroke="#000000" stroke-miterlimit="10" points="2741.776,2598.635 2772.602,2544.833 2834.607,2544.628 
	2865.789,2598.227 2834.963,2652.027 2772.956,2652.232 "/>
<polygon fill="none" stroke="#000000" stroke-miterlimit="10" points="2711.436,2544.693 2742.264,2490.89 2804.269,2490.686 
	2835.449,2544.283 2804.624,2598.084 2742.617,2598.289 "/>
<polygon fill="none" stroke="#000000" stroke-miterlimit="10" points="2637.102,2632.691 2667.928,2578.891 2729.934,2578.686 
	2761.113,2632.283 2730.289,2686.086 2668.282,2686.289 "/>
<polygon fill="none" stroke="#000000" stroke-miterlimit="10" points="2658.104,2598.361 2688.928,2544.563 2750.933,2544.358 
	2782.115,2597.953 2751.29,2651.754 2689.283,2651.959 "/>
<polygon fill="none" stroke="#000000" stroke-miterlimit="10" points="2646.52,2579.561 2677.342,2525.761 2739.348,2525.556 
	2770.529,2579.152 2739.705,2632.953 2677.697,2633.158 "/>
<polygon fill="none" stroke="#000000" stroke-miterlimit="10" points="2670.608,2652.436 2701.435,2598.637 2763.44,2598.432 
	2794.619,2652.027 2763.796,2705.828 2701.789,2706.033 "/>
<polygon fill="none" stroke="#000000" stroke-miterlimit="10" points="2711.437,2652.436 2742.264,2598.637 2804.27,2598.434 
	2835.449,2652.027 2804.624,2705.828 2742.617,2706.033 "/>
<polygon fill="none" stroke="#000000" stroke-miterlimit="10" points="2761.113,2563.902 2791.939,2510.103 2853.945,2509.9 
	2885.127,2563.494 2854.301,2617.295 2792.293,2617.502 "/>
<polygon fill="none" stroke="#000000" stroke-miterlimit="10" points="2746.768,2487.124 2777.593,2433.323 2839.598,2433.117 
	2870.779,2486.714 2839.955,2540.515 2777.949,2540.72 "/>
<polygon fill="none" stroke="#000000" stroke-miterlimit="10" points="2811.031,2598.637 2841.857,2544.833 2903.865,2544.628 
	2935.043,2598.227 2904.22,2652.027 2842.213,2652.232 "/>
<polygon fill="none" stroke="#000000" stroke-miterlimit="10" points="2746.768,2709.602 2777.594,2655.801 2839.599,2655.596 
	2870.779,2709.193 2839.954,2762.994 2777.948,2763.199 "/>
<polygon fill="none" stroke="#000000" stroke-miterlimit="10" points="2619.092,2709.602 2649.916,2655.801 2711.924,2655.596 
	2743.104,2709.193 2712.278,2762.994 2650.271,2763.199 "/>
<polygon fill="none" stroke="#000000" stroke-miterlimit="10" points="2682.828,2709.602 2713.652,2655.801 2775.66,2655.596 
	2806.839,2709.193 2776.016,2762.996 2714.008,2763.199 "/>
<polygon fill="none" stroke="#000000" stroke-miterlimit="10" points="2584.514,2652.438 2615.336,2598.637 2677.343,2598.432 
	2708.525,2652.029 2677.699,2705.83 2615.692,2706.035 "/>
<polygon fill="none" stroke="#000000" stroke-miterlimit="10" points="2778.924,2652.438 2809.749,2598.637 2871.754,2598.432 
	2902.936,2652.029 2872.109,2705.83 2810.103,2706.035 "/>
<polygon fill="none" stroke="#000000" stroke-miterlimit="10" points="2778.923,2540.924 2809.748,2487.124 2871.754,2486.919 
	2902.935,2540.515 2872.11,2594.316 2810.102,2594.521 "/>
<polygon fill="none" stroke="#000000" stroke-miterlimit="10" points="2682.827,2487.123 2713.653,2433.323 2775.66,2433.118 
	2806.839,2486.715 2776.015,2540.516 2714.008,2540.72 "/>
<polygon fill="none" stroke="#000000" stroke-miterlimit="10" points="2716.917,2540.924 2747.742,2487.124 2809.748,2486.917 
	2840.929,2540.515 2810.105,2594.316 2748.097,2594.521 "/>
<polygon fill="none" stroke="#000000" stroke-miterlimit="10" points="2716.917,2544.561 2747.742,2490.759 2809.748,2490.554 
	2840.93,2544.152 2810.104,2597.953 2748.097,2598.158 "/>
<polygon fill="none" stroke="#000000" stroke-miterlimit="10" points="2705.338,2626.777 2736.163,2572.977 2798.169,2572.771 
	2829.349,2626.369 2798.523,2680.17 2736.518,2680.375 "/>
<polygon fill="none" stroke="#000000" stroke-miterlimit="10" points="2735.762,2572.977 2766.588,2519.176 2828.594,2518.97 
	2859.774,2572.568 2828.949,2626.369 2766.942,2626.574 "/>
<polygon fill="none" stroke="#000000" stroke-miterlimit="10" points="2690.87,2687.164 2721.695,2633.363 2783.701,2633.158 
	2814.883,2686.756 2784.057,2740.557 2722.05,2740.762 "/>
<polygon fill="none" stroke="#000000" stroke-miterlimit="10" points="2673.757,2626.777 2704.58,2572.977 2766.587,2572.771 
	2797.769,2626.369 2766.943,2680.17 2704.936,2680.375 "/>
<polygon fill="none" stroke="#000000" stroke-miterlimit="10" points="2611.751,2626.777 2642.576,2572.977 2704.582,2572.771 
	2735.763,2626.369 2704.938,2680.17 2642.93,2680.375 "/>
<polygon fill="none" stroke="#000000" stroke-miterlimit="10" points="2705.336,2680.58 2736.162,2626.781 2798.169,2626.574 
	2829.348,2680.172 2798.523,2733.973 2736.518,2734.178 "/>
<polygon fill="none" stroke="#000000" stroke-miterlimit="10" points="2628.863,2686.402 2659.689,2632.602 2721.695,2632.396 
	2752.876,2685.994 2722.052,2739.795 2660.044,2740 "/>
<polygon fill="none" stroke="#000000" stroke-miterlimit="10" points="2673.789,2626.439 2704.615,2572.639 2766.621,2572.434 
	2797.803,2626.031 2766.977,2679.834 2704.971,2680.037 "/>
<polygon fill="none" stroke="#000000" stroke-miterlimit="10" points="2207.253,2648.331 2301.816,2483.293 2492.028,2482.664 
	2587.676,2647.076 2493.115,2812.118 2302.903,2812.745 "/>
<polygon fill="none" stroke="#000000" stroke-miterlimit="10" points="2207.301,2648.181 2238.126,2594.38 2300.133,2594.174 
	2331.313,2647.772 2300.487,2701.572 2238.482,2701.778 "/>
<polygon fill="none" stroke="#000000" stroke-miterlimit="10" points="2269.355,2539.538 2300.699,2484.835 2363.745,2484.625 
	2395.45,2539.121 2364.108,2593.825 2301.059,2594.032 "/>
<polygon fill="none" stroke="#000000" stroke-miterlimit="10" points="2332.402,2648.181 2363.227,2594.379 2425.233,2594.174 
	2456.413,2647.772 2425.59,2701.573 2363.582,2701.779 "/>
<polygon fill="none" stroke="#000000" stroke-miterlimit="10" points="2394.408,2648.181 2425.233,2594.379 2487.239,2594.174 
	2518.42,2647.771 2487.594,2701.573 2425.587,2701.777 "/>
<polygon fill="none" stroke="#000000" stroke-miterlimit="10" points="2364.067,2594.238 2394.895,2540.436 2456.9,2540.231 
	2488.081,2593.828 2457.255,2647.629 2395.249,2647.834 "/>
<polygon fill="none" stroke="#000000" stroke-miterlimit="10" points="2289.733,2682.236 2320.559,2628.436 2382.565,2628.23 
	2413.745,2681.828 2382.92,2735.631 2320.914,2735.835 "/>
<polygon fill="none" stroke="#000000" stroke-miterlimit="10" points="2310.735,2647.906 2341.559,2594.108 2403.564,2593.903 
	2434.747,2647.499 2403.921,2701.3 2341.915,2701.504 "/>
<polygon fill="none" stroke="#000000" stroke-miterlimit="10" points="2299.151,2629.105 2329.973,2575.307 2391.979,2575.102 
	2423.161,2628.697 2392.336,2682.498 2330.329,2682.703 "/>
<polygon fill="none" stroke="#000000" stroke-miterlimit="10" points="2323.24,2701.981 2354.066,2648.183 2416.072,2647.977 
	2447.25,2701.573 2416.427,2755.373 2354.42,2755.578 "/>
<polygon fill="none" stroke="#000000" stroke-miterlimit="10" points="2364.068,2701.98 2394.895,2648.182 2456.901,2647.979 
	2488.081,2701.573 2457.255,2755.374 2395.249,2755.578 "/>
<polygon fill="none" stroke="#000000" stroke-miterlimit="10" points="2413.745,2613.447 2444.571,2559.648 2506.577,2559.445 
	2537.758,2613.039 2506.932,2666.841 2444.924,2667.047 "/>
<polygon fill="none" stroke="#000000" stroke-miterlimit="10" points="2399.399,2536.669 2430.224,2482.868 2492.229,2482.662 
	2523.411,2536.26 2492.586,2590.061 2430.581,2590.266 "/>
<polygon fill="none" stroke="#000000" stroke-miterlimit="10" points="2463.663,2648.182 2494.489,2594.379 2556.496,2594.174 
	2587.674,2647.771 2556.852,2701.573 2494.844,2701.778 "/>
<polygon fill="none" stroke="#000000" stroke-miterlimit="10" points="2399.399,2759.146 2430.225,2705.346 2492.23,2705.142 
	2523.411,2758.738 2492.585,2812.539 2430.58,2812.745 "/>
<polygon fill="none" stroke="#000000" stroke-miterlimit="10" points="2271.723,2759.146 2302.547,2705.346 2364.555,2705.141 
	2395.735,2758.739 2364.91,2812.54 2302.903,2812.745 "/>
<polygon fill="none" stroke="#000000" stroke-miterlimit="10" points="2335.459,2759.146 2366.284,2705.346 2428.292,2705.141 
	2459.47,2758.738 2428.647,2812.541 2366.639,2812.745 "/>
<polygon fill="none" stroke="#000000" stroke-miterlimit="10" points="2237.145,2701.983 2267.967,2648.183 2329.974,2647.978 
	2361.157,2701.574 2330.331,2755.375 2268.324,2755.58 "/>
<polygon fill="none" stroke="#000000" stroke-miterlimit="10" points="2431.555,2701.983 2462.38,2648.183 2524.385,2647.978 
	2555.566,2701.574 2524.741,2755.375 2462.734,2755.58 "/>
<polygon fill="none" stroke="#000000" stroke-miterlimit="10" points="2431.554,2590.47 2462.379,2536.669 2524.385,2536.465 
	2555.566,2590.061 2524.742,2643.861 2462.733,2644.066 "/>
<polygon fill="none" stroke="#000000" stroke-miterlimit="10" points="2335.458,2536.668 2366.285,2482.868 2428.292,2482.663 
	2459.47,2536.261 2428.646,2590.062 2366.639,2590.266 "/>
<polygon fill="none" stroke="#000000" stroke-miterlimit="10" points="2369.548,2590.47 2400.374,2536.669 2462.379,2536.463 
	2493.56,2590.061 2462.737,2643.861 2400.728,2644.066 "/>
<polygon fill="none" stroke="#000000" stroke-miterlimit="10" points="2369.548,2594.106 2400.374,2540.305 2462.379,2540.1 
	2493.561,2593.697 2462.735,2647.498 2400.728,2647.703 "/>
<polygon fill="none" stroke="#000000" stroke-miterlimit="10" points="2357.969,2676.322 2388.794,2622.522 2450.8,2622.316 
	2481.98,2675.915 2451.155,2729.715 2389.149,2729.921 "/>
<polygon fill="none" stroke="#000000" stroke-miterlimit="10" points="2388.393,2622.521 2419.219,2568.722 2481.225,2568.516 
	2512.406,2622.114 2481.581,2675.915 2419.574,2676.12 "/>
<polygon fill="none" stroke="#000000" stroke-miterlimit="10" points="2343.501,2736.71 2374.327,2682.908 2436.333,2682.703 
	2467.514,2736.301 2436.688,2790.103 2374.681,2790.307 "/>
<polygon fill="none" stroke="#000000" stroke-miterlimit="10" points="2326.388,2676.323 2357.211,2622.521 2419.218,2622.317 
	2450.4,2675.915 2419.575,2729.715 2357.567,2729.92 "/>
<polygon fill="none" stroke="#000000" stroke-miterlimit="10" points="2264.382,2676.323 2295.208,2622.522 2357.213,2622.316 
	2388.394,2675.915 2357.569,2729.715 2295.561,2729.92 "/>
<polygon fill="none" stroke="#000000" stroke-miterlimit="10" points="2357.967,2730.125 2388.793,2676.326 2450.8,2676.12 
	2481.979,2729.717 2451.155,2783.518 2389.149,2783.723 "/>
<polygon fill="none" stroke="#000000" stroke-miterlimit="10" points="2281.495,2735.947 2312.321,2682.146 2374.327,2681.941 
	2405.507,2735.54 2374.683,2789.341 2312.675,2789.546 "/>
<polygon fill="none" stroke="#000000" stroke-miterlimit="10" points="2326.42,2675.984 2357.247,2622.184 2419.252,2621.979 
	2450.434,2675.576 2419.608,2729.379 2357.602,2729.582 "/>
<polygon fill="none" stroke="#000000" stroke-miterlimit="10" points="2265.446,2761.223 2360.008,2596.185 2550.22,2595.556 
	2645.869,2759.968 2551.307,2925.01 2361.095,2925.637 "/>
<polygon fill="none" stroke="#000000" stroke-miterlimit="10" points="2265.494,2761.072 2296.319,2707.271 2358.326,2707.065 
	2389.505,2760.664 2358.679,2814.464 2296.674,2814.67 "/>
<polygon fill="none" stroke="#000000" stroke-miterlimit="10" points="2327.547,2652.43 2358.891,2597.727 2421.937,2597.517 
	2453.642,2652.013 2422.3,2706.717 2359.251,2706.924 "/>
<polygon fill="none" stroke="#000000" stroke-miterlimit="10" points="2390.594,2761.072 2421.419,2707.271 2483.425,2707.065 
	2514.605,2760.664 2483.783,2814.465 2421.774,2814.671 "/>
<polygon fill="none" stroke="#000000" stroke-miterlimit="10" points="2452.6,2761.072 2483.425,2707.271 2545.431,2707.065 
	2576.613,2760.663 2545.787,2814.465 2483.78,2814.669 "/>
<polygon fill="none" stroke="#000000" stroke-miterlimit="10" points="2422.259,2707.13 2453.087,2653.327 2515.092,2653.123 
	2546.273,2706.72 2515.448,2760.521 2453.441,2760.726 "/>
<polygon fill="none" stroke="#000000" stroke-miterlimit="10" points="2347.925,2795.128 2378.751,2741.327 2440.757,2741.122 
	2471.937,2794.72 2441.113,2848.522 2379.106,2848.727 "/>
<polygon fill="none" stroke="#000000" stroke-miterlimit="10" points="2368.927,2760.798 2399.751,2707 2461.756,2706.795 
	2492.939,2760.391 2462.114,2814.191 2400.107,2814.396 "/>
<polygon fill="none" stroke="#000000" stroke-miterlimit="10" points="2357.343,2741.997 2388.166,2688.198 2450.171,2687.993 
	2481.353,2741.589 2450.529,2795.39 2388.521,2795.595 "/>
<polygon fill="none" stroke="#000000" stroke-miterlimit="10" points="2381.432,2814.873 2412.258,2761.074 2474.264,2760.868 
	2505.443,2814.465 2474.62,2868.265 2412.613,2868.47 "/>
<polygon fill="none" stroke="#000000" stroke-miterlimit="10" points="2422.26,2814.872 2453.087,2761.073 2515.093,2760.87 
	2546.273,2814.465 2515.448,2868.266 2453.441,2868.47 "/>
<polygon fill="none" stroke="#000000" stroke-miterlimit="10" points="2471.937,2726.339 2502.763,2672.54 2564.77,2672.337 
	2595.951,2725.931 2565.125,2779.732 2503.117,2779.938 "/>
<polygon fill="none" stroke="#000000" stroke-miterlimit="10" points="2457.591,2649.561 2488.417,2595.76 2550.421,2595.554 
	2581.604,2649.151 2550.779,2702.952 2488.773,2703.157 "/>
<polygon fill="none" stroke="#000000" stroke-miterlimit="10" points="2521.855,2761.073 2552.682,2707.271 2614.689,2707.065 
	2645.867,2760.663 2615.043,2814.465 2553.037,2814.67 "/>
<polygon fill="none" stroke="#000000" stroke-miterlimit="10" points="2457.591,2872.038 2488.417,2818.237 2550.422,2818.033 
	2581.604,2871.63 2550.778,2925.431 2488.772,2925.637 "/>
<polygon fill="none" stroke="#000000" stroke-miterlimit="10" points="2329.916,2872.038 2360.74,2818.237 2422.748,2818.032 
	2453.927,2871.631 2423.102,2925.432 2361.095,2925.637 "/>
<polygon fill="none" stroke="#000000" stroke-miterlimit="10" points="2393.652,2872.038 2424.476,2818.237 2486.484,2818.032 
	2517.663,2871.63 2486.839,2925.433 2424.832,2925.637 "/>
<polygon fill="none" stroke="#000000" stroke-miterlimit="10" points="2295.337,2814.875 2326.16,2761.074 2388.167,2760.869 
	2419.349,2814.466 2388.523,2868.267 2326.516,2868.472 "/>
<polygon fill="none" stroke="#000000" stroke-miterlimit="10" points="2489.748,2814.875 2520.573,2761.074 2582.578,2760.869 
	2613.76,2814.466 2582.934,2868.267 2520.926,2868.472 "/>
<polygon fill="none" stroke="#000000" stroke-miterlimit="10" points="2489.747,2703.361 2520.572,2649.561 2582.578,2649.356 
	2613.758,2702.952 2582.934,2756.753 2520.925,2756.958 "/>
<polygon fill="none" stroke="#000000" stroke-miterlimit="10" points="2393.651,2649.56 2424.477,2595.76 2486.484,2595.555 
	2517.663,2649.152 2486.838,2702.953 2424.832,2703.157 "/>
<polygon fill="none" stroke="#000000" stroke-miterlimit="10" points="2427.741,2703.361 2458.566,2649.561 2520.572,2649.354 
	2551.752,2702.952 2520.929,2756.753 2458.92,2756.958 "/>
<polygon fill="none" stroke="#000000" stroke-miterlimit="10" points="2427.741,2706.998 2458.566,2653.196 2520.572,2652.991 
	2551.753,2706.589 2520.927,2760.39 2458.92,2760.595 "/>
<polygon fill="none" stroke="#000000" stroke-miterlimit="10" points="2416.162,2789.214 2446.987,2735.414 2508.993,2735.208 
	2540.172,2788.807 2509.347,2842.606 2447.341,2842.812 "/>
<polygon fill="none" stroke="#000000" stroke-miterlimit="10" points="2446.585,2735.413 2477.412,2681.613 2539.417,2681.407 
	2570.598,2735.006 2539.773,2788.807 2477.766,2789.012 "/>
<polygon fill="none" stroke="#000000" stroke-miterlimit="10" points="2401.694,2849.602 2432.519,2795.8 2494.525,2795.595 
	2525.707,2849.192 2494.88,2902.994 2432.874,2903.198 "/>
<polygon fill="none" stroke="#000000" stroke-miterlimit="10" points="2384.581,2789.215 2415.404,2735.413 2477.411,2735.209 
	2508.592,2788.807 2477.767,2842.606 2415.759,2842.812 "/>
<polygon fill="none" stroke="#000000" stroke-miterlimit="10" points="2322.575,2789.215 2353.4,2735.414 2415.406,2735.208 
	2446.586,2788.807 2415.761,2842.606 2353.753,2842.812 "/>
<polygon fill="none" stroke="#000000" stroke-miterlimit="10" points="2416.16,2843.017 2446.986,2789.218 2508.993,2789.012 
	2540.171,2842.608 2509.347,2896.409 2447.341,2896.614 "/>
<polygon fill="none" stroke="#000000" stroke-miterlimit="10" points="2339.687,2848.839 2370.513,2795.038 2432.519,2794.833 
	2463.7,2848.432 2432.875,2902.232 2370.868,2902.438 "/>
<polygon fill="none" stroke="#000000" stroke-miterlimit="10" points="2384.613,2788.876 2415.439,2735.075 2477.445,2734.871 
	2508.626,2788.468 2477.8,2842.271 2415.794,2842.474 "/>
<polygon fill="none" stroke="#000000" stroke-miterlimit="10" points="2330.345,2539.338 2424.907,2374.3 2615.119,2373.671 
	2710.768,2538.083 2616.206,2703.125 2425.994,2703.752 "/>
<polygon fill="none" stroke="#000000" stroke-miterlimit="10" points="2330.393,2539.188 2361.218,2485.387 2423.225,2485.181 
	2454.404,2538.779 2423.578,2592.579 2361.573,2592.785 "/>
<polygon fill="none" stroke="#000000" stroke-miterlimit="10" points="2392.446,2430.545 2423.79,2375.842 2486.836,2375.632 
	2518.541,2430.128 2487.199,2484.832 2424.15,2485.039 "/>
<polygon fill="none" stroke="#000000" stroke-miterlimit="10" points="2455.493,2539.188 2486.318,2485.386 2548.324,2485.181 
	2579.504,2538.779 2548.682,2592.58 2486.673,2592.786 "/>
<polygon fill="none" stroke="#000000" stroke-miterlimit="10" points="2517.499,2539.188 2548.324,2485.386 2610.33,2485.181 
	2641.512,2538.778 2610.686,2592.58 2548.679,2592.784 "/>
<polygon fill="none" stroke="#000000" stroke-miterlimit="10" points="2487.158,2485.245 2517.986,2431.442 2579.991,2431.238 
	2611.172,2484.835 2580.347,2538.636 2518.34,2538.841 "/>
<polygon fill="none" stroke="#000000" stroke-miterlimit="10" points="2412.824,2573.243 2443.65,2519.442 2505.656,2519.237 
	2536.836,2572.835 2506.012,2626.638 2444.005,2626.842 "/>
<polygon fill="none" stroke="#000000" stroke-miterlimit="10" points="2433.826,2538.913 2464.65,2485.115 2526.655,2484.91 
	2557.838,2538.506 2527.013,2592.307 2465.006,2592.511 "/>
<polygon fill="none" stroke="#000000" stroke-miterlimit="10" points="2422.242,2520.112 2453.064,2466.313 2515.07,2466.108 
	2546.252,2519.704 2515.428,2573.505 2453.42,2573.71 "/>
<polygon fill="none" stroke="#000000" stroke-miterlimit="10" points="2446.331,2592.988 2477.157,2539.189 2539.163,2538.983 
	2570.342,2592.58 2539.519,2646.38 2477.512,2646.585 "/>
<polygon fill="none" stroke="#000000" stroke-miterlimit="10" points="2487.159,2592.987 2517.986,2539.188 2579.992,2538.985 
	2611.172,2592.58 2580.347,2646.381 2518.34,2646.585 "/>
<polygon fill="none" stroke="#000000" stroke-miterlimit="10" points="2536.836,2504.454 2567.662,2450.655 2629.668,2450.452 
	2660.85,2504.046 2630.023,2557.848 2568.016,2558.054 "/>
<polygon fill="none" stroke="#000000" stroke-miterlimit="10" points="2522.49,2427.676 2553.315,2373.875 2615.32,2373.669 
	2646.502,2427.267 2615.678,2481.067 2553.672,2481.272 "/>
<polygon fill="none" stroke="#000000" stroke-miterlimit="10" points="2586.754,2539.188 2617.58,2485.386 2679.588,2485.181 
	2710.766,2538.778 2679.942,2592.58 2617.936,2592.785 "/>
<polygon fill="none" stroke="#000000" stroke-miterlimit="10" points="2522.49,2650.153 2553.316,2596.353 2615.321,2596.148 
	2646.502,2649.745 2615.677,2703.546 2553.671,2703.752 "/>
<polygon fill="none" stroke="#000000" stroke-miterlimit="10" points="2394.814,2650.153 2425.639,2596.353 2487.646,2596.147 
	2518.826,2649.746 2488.001,2703.547 2425.994,2703.752 "/>
<polygon fill="none" stroke="#000000" stroke-miterlimit="10" points="2458.551,2650.153 2489.375,2596.353 2551.383,2596.147 
	2582.562,2649.745 2551.738,2703.548 2489.73,2703.752 "/>
<polygon fill="none" stroke="#000000" stroke-miterlimit="10" points="2360.236,2592.99 2391.059,2539.189 2453.065,2538.984 
	2484.248,2592.581 2453.422,2646.382 2391.415,2646.587 "/>
<polygon fill="none" stroke="#000000" stroke-miterlimit="10" points="2554.646,2592.99 2585.472,2539.189 2647.477,2538.984 
	2678.658,2592.581 2647.832,2646.382 2585.825,2646.587 "/>
<polygon fill="none" stroke="#000000" stroke-miterlimit="10" points="2554.646,2481.477 2585.471,2427.676 2647.477,2427.472 
	2678.657,2481.067 2647.833,2534.868 2585.824,2535.073 "/>
<polygon fill="none" stroke="#000000" stroke-miterlimit="10" points="2458.55,2427.675 2489.376,2373.875 2551.383,2373.67 
	2582.562,2427.268 2551.737,2481.068 2489.73,2481.272 "/>
<polygon fill="none" stroke="#000000" stroke-miterlimit="10" points="2492.64,2481.477 2523.465,2427.676 2585.471,2427.47 
	2616.651,2481.067 2585.828,2534.868 2523.819,2535.073 "/>
<polygon fill="none" stroke="#000000" stroke-miterlimit="10" points="2492.64,2485.113 2523.465,2431.312 2585.471,2431.106 
	2616.652,2484.704 2585.826,2538.505 2523.819,2538.71 "/>
<polygon fill="none" stroke="#000000" stroke-miterlimit="10" points="2481.061,2567.329 2511.886,2513.529 2573.892,2513.323 
	2605.071,2566.922 2574.246,2620.722 2512.24,2620.928 "/>
<polygon fill="none" stroke="#000000" stroke-miterlimit="10" points="2511.484,2513.528 2542.311,2459.729 2604.316,2459.522 
	2635.497,2513.121 2604.672,2566.922 2542.665,2567.127 "/>
<polygon fill="none" stroke="#000000" stroke-miterlimit="10" points="2466.593,2627.717 2497.418,2573.915 2559.424,2573.71 
	2590.605,2627.308 2559.779,2681.109 2497.772,2681.313 "/>
<polygon fill="none" stroke="#000000" stroke-miterlimit="10" points="2449.479,2567.33 2480.303,2513.528 2542.31,2513.324 
	2573.491,2566.922 2542.666,2620.722 2480.658,2620.927 "/>
<polygon fill="none" stroke="#000000" stroke-miterlimit="10" points="2387.474,2567.33 2418.299,2513.529 2480.305,2513.323 
	2511.485,2566.922 2480.66,2620.722 2418.652,2620.927 "/>
<polygon fill="none" stroke="#000000" stroke-miterlimit="10" points="2481.059,2621.132 2511.885,2567.333 2573.892,2567.127 
	2605.07,2620.724 2574.246,2674.524 2512.24,2674.729 "/>
<polygon fill="none" stroke="#000000" stroke-miterlimit="10" points="2404.586,2626.954 2435.412,2573.153 2497.418,2572.948 
	2528.599,2626.547 2497.774,2680.348 2435.767,2680.553 "/>
<polygon fill="none" stroke="#000000" stroke-miterlimit="10" points="2449.512,2566.991 2480.338,2513.19 2542.344,2512.986 
	2573.525,2566.583 2542.699,2620.386 2480.693,2620.589 "/>
<polygon fill="none" stroke="#000000" stroke-miterlimit="10" points="2009.606,2866.797 2104.169,2701.759 2294.381,2701.13 
	2390.029,2865.542 2295.468,3030.584 2105.256,3031.211 "/>
<polygon fill="none" stroke="#000000" stroke-miterlimit="10" points="2009.654,2866.646 2040.479,2812.846 2102.486,2812.64 
	2133.666,2866.238 2102.84,2920.038 2040.835,2920.244 "/>
<polygon fill="none" stroke="#000000" stroke-miterlimit="10" points="2071.708,2758.004 2103.052,2703.301 2166.098,2703.091 
	2197.803,2757.587 2166.461,2812.291 2103.412,2812.498 "/>
<polygon fill="none" stroke="#000000" stroke-miterlimit="10" points="2134.755,2866.646 2165.58,2812.845 2227.586,2812.64 
	2258.766,2866.238 2227.943,2920.039 2165.935,2920.245 "/>
<polygon fill="none" stroke="#000000" stroke-miterlimit="10" points="2196.761,2866.646 2227.586,2812.845 2289.592,2812.64 
	2320.773,2866.237 2289.947,2920.039 2227.94,2920.243 "/>
<polygon fill="none" stroke="#000000" stroke-miterlimit="10" points="2166.42,2812.704 2197.248,2758.901 2259.253,2758.697 
	2290.434,2812.294 2259.608,2866.095 2197.602,2866.3 "/>
<polygon fill="none" stroke="#000000" stroke-miterlimit="10" points="2092.086,2900.702 2122.912,2846.901 2184.918,2846.696 
	2216.098,2900.294 2185.273,2954.097 2123.267,2954.301 "/>
<polygon fill="none" stroke="#000000" stroke-miterlimit="10" points="2113.088,2866.372 2143.912,2812.574 2205.917,2812.369 
	2237.1,2865.965 2206.274,2919.766 2144.268,2919.97 "/>
<polygon fill="none" stroke="#000000" stroke-miterlimit="10" points="2101.504,2847.571 2132.326,2793.772 2194.332,2793.567 
	2225.514,2847.163 2194.689,2900.964 2132.682,2901.169 "/>
<polygon fill="none" stroke="#000000" stroke-miterlimit="10" points="2125.593,2920.447 2156.419,2866.648 2218.425,2866.442 
	2249.604,2920.039 2218.78,2973.839 2156.773,2974.044 "/>
<polygon fill="none" stroke="#000000" stroke-miterlimit="10" points="2166.421,2920.446 2197.248,2866.647 2259.254,2866.444 
	2290.434,2920.039 2259.608,2973.84 2197.602,2974.044 "/>
<polygon fill="none" stroke="#000000" stroke-miterlimit="10" points="2216.098,2831.913 2246.924,2778.114 2308.93,2777.911 
	2340.111,2831.505 2309.285,2885.307 2247.277,2885.513 "/>
<polygon fill="none" stroke="#000000" stroke-miterlimit="10" points="2201.752,2755.135 2232.577,2701.334 2294.582,2701.128 
	2325.764,2754.726 2294.939,2808.526 2232.934,2808.731 "/>
<polygon fill="none" stroke="#000000" stroke-miterlimit="10" points="2266.016,2866.647 2296.842,2812.845 2358.85,2812.64 
	2390.027,2866.237 2359.204,2920.039 2297.197,2920.244 "/>
<polygon fill="none" stroke="#000000" stroke-miterlimit="10" points="2201.752,2977.612 2232.578,2923.812 2294.583,2923.607 
	2325.764,2977.204 2294.938,3031.005 2232.933,3031.211 "/>
<polygon fill="none" stroke="#000000" stroke-miterlimit="10" points="2074.076,2977.612 2104.9,2923.812 2166.908,2923.606 
	2198.088,2977.205 2167.263,3031.006 2105.256,3031.211 "/>
<polygon fill="none" stroke="#000000" stroke-miterlimit="10" points="2137.812,2977.612 2168.637,2923.812 2230.645,2923.606 
	2261.823,2977.204 2231,3031.007 2168.992,3031.211 "/>
<polygon fill="none" stroke="#000000" stroke-miterlimit="10" points="2039.498,2920.449 2070.32,2866.648 2132.327,2866.443 
	2163.51,2920.04 2132.684,2973.841 2070.677,2974.046 "/>
<polygon fill="none" stroke="#000000" stroke-miterlimit="10" points="2233.908,2920.449 2264.733,2866.648 2326.738,2866.443 
	2357.92,2920.04 2327.094,2973.841 2265.087,2974.046 "/>
<polygon fill="none" stroke="#000000" stroke-miterlimit="10" points="2233.907,2808.936 2264.732,2755.135 2326.738,2754.931 
	2357.919,2808.526 2327.095,2862.327 2265.086,2862.532 "/>
<polygon fill="none" stroke="#000000" stroke-miterlimit="10" points="2137.812,2755.134 2168.638,2701.334 2230.645,2701.129 
	2261.823,2754.727 2230.999,2808.527 2168.992,2808.731 "/>
<polygon fill="none" stroke="#000000" stroke-miterlimit="10" points="2171.901,2808.936 2202.727,2755.135 2264.732,2754.929 
	2295.913,2808.526 2265.09,2862.327 2203.081,2862.532 "/>
<polygon fill="none" stroke="#000000" stroke-miterlimit="10" points="2171.901,2812.572 2202.727,2758.771 2264.732,2758.565 
	2295.914,2812.163 2265.088,2865.964 2203.081,2866.169 "/>
<polygon fill="none" stroke="#000000" stroke-miterlimit="10" points="2160.322,2894.788 2191.147,2840.988 2253.153,2840.782 
	2284.333,2894.381 2253.508,2948.181 2191.502,2948.387 "/>
<polygon fill="none" stroke="#000000" stroke-miterlimit="10" points="2190.746,2840.987 2221.572,2787.188 2283.578,2786.981 
	2314.759,2840.58 2283.934,2894.381 2221.927,2894.586 "/>
<polygon fill="none" stroke="#000000" stroke-miterlimit="10" points="2145.854,2955.176 2176.68,2901.374 2238.686,2901.169 
	2269.867,2954.767 2239.041,3008.568 2177.034,3008.772 "/>
<polygon fill="none" stroke="#000000" stroke-miterlimit="10" points="2128.741,2894.789 2159.564,2840.987 2221.571,2840.783 
	2252.753,2894.381 2221.928,2948.181 2159.92,2948.386 "/>
<polygon fill="none" stroke="#000000" stroke-miterlimit="10" points="2066.735,2894.789 2097.561,2840.988 2159.566,2840.782 
	2190.747,2894.381 2159.922,2948.181 2097.914,2948.386 "/>
<polygon fill="none" stroke="#000000" stroke-miterlimit="10" points="2160.32,2948.591 2191.146,2894.792 2253.153,2894.586 
	2284.332,2948.183 2253.508,3001.983 2191.502,3002.188 "/>
<polygon fill="none" stroke="#000000" stroke-miterlimit="10" points="2083.848,2954.413 2114.674,2900.612 2176.68,2900.407 
	2207.86,2954.006 2177.036,3007.807 2115.028,3008.012 "/>
<polygon fill="none" stroke="#000000" stroke-miterlimit="10" points="2128.773,2894.45 2159.6,2840.649 2221.605,2840.445 
	2252.787,2894.042 2221.961,2947.845 2159.955,2948.048 "/>
<polygon fill="none" stroke="#000000" stroke-miterlimit="10" points="2041.55,2703.023 2136.113,2537.985 2326.325,2537.356 
	2421.973,2701.769 2327.412,2866.811 2137.2,2867.438 "/>
<polygon fill="none" stroke="#000000" stroke-miterlimit="10" points="2041.598,2702.873 2072.423,2649.072 2134.43,2648.866 
	2165.61,2702.465 2134.784,2756.265 2072.779,2756.471 "/>
<polygon fill="none" stroke="#000000" stroke-miterlimit="10" points="2103.652,2594.23 2134.996,2539.527 2198.042,2539.317 
	2229.747,2593.813 2198.405,2648.518 2135.356,2648.725 "/>
<polygon fill="none" stroke="#000000" stroke-miterlimit="10" points="2166.699,2702.873 2197.524,2649.071 2259.53,2648.866 
	2290.709,2702.465 2259.887,2756.266 2197.878,2756.472 "/>
<polygon fill="none" stroke="#000000" stroke-miterlimit="10" points="2228.705,2702.873 2259.53,2649.071 2321.536,2648.866 
	2352.717,2702.464 2321.891,2756.266 2259.884,2756.47 "/>
<polygon fill="none" stroke="#000000" stroke-miterlimit="10" points="2198.364,2648.931 2229.192,2595.128 2291.197,2594.924 
	2322.377,2648.521 2291.552,2702.321 2229.545,2702.526 "/>
<polygon fill="none" stroke="#000000" stroke-miterlimit="10" points="2124.03,2736.929 2154.856,2683.128 2216.862,2682.923 
	2248.042,2736.521 2217.217,2790.323 2155.21,2790.527 "/>
<polygon fill="none" stroke="#000000" stroke-miterlimit="10" points="2145.032,2702.599 2175.856,2648.801 2237.861,2648.596 
	2269.043,2702.191 2238.218,2755.992 2176.211,2756.196 "/>
<polygon fill="none" stroke="#000000" stroke-miterlimit="10" points="2133.448,2683.798 2164.27,2629.999 2226.276,2629.794 
	2257.458,2683.39 2226.633,2737.19 2164.625,2737.396 "/>
<polygon fill="none" stroke="#000000" stroke-miterlimit="10" points="2157.537,2756.674 2188.363,2702.875 2250.369,2702.669 
	2281.547,2756.266 2250.724,2810.065 2188.717,2810.271 "/>
<polygon fill="none" stroke="#000000" stroke-miterlimit="10" points="2198.365,2756.673 2229.192,2702.874 2291.198,2702.671 
	2322.377,2756.266 2291.552,2810.066 2229.545,2810.271 "/>
<polygon fill="none" stroke="#000000" stroke-miterlimit="10" points="2248.042,2668.14 2278.868,2614.341 2340.874,2614.138 
	2372.055,2667.731 2341.229,2721.533 2279.221,2721.739 "/>
<polygon fill="none" stroke="#000000" stroke-miterlimit="10" points="2233.696,2591.361 2264.521,2537.561 2326.526,2537.354 
	2357.708,2590.952 2326.883,2644.753 2264.877,2644.958 "/>
<polygon fill="none" stroke="#000000" stroke-miterlimit="10" points="2297.959,2702.874 2328.786,2649.071 2390.793,2648.866 
	2421.971,2702.464 2391.148,2756.266 2329.141,2756.471 "/>
<polygon fill="none" stroke="#000000" stroke-miterlimit="10" points="2233.696,2813.839 2264.522,2760.038 2326.527,2759.834 
	2357.708,2813.431 2326.882,2867.231 2264.876,2867.438 "/>
<polygon fill="none" stroke="#000000" stroke-miterlimit="10" points="2106.02,2813.839 2136.844,2760.038 2198.852,2759.833 
	2230.032,2813.432 2199.207,2867.232 2137.2,2867.438 "/>
<polygon fill="none" stroke="#000000" stroke-miterlimit="10" points="2169.756,2813.839 2200.581,2760.038 2262.588,2759.833 
	2293.767,2813.431 2262.944,2867.233 2200.936,2867.438 "/>
<polygon fill="none" stroke="#000000" stroke-miterlimit="10" points="2071.442,2756.676 2102.264,2702.875 2164.271,2702.67 
	2195.454,2756.267 2164.627,2810.067 2102.621,2810.272 "/>
<polygon fill="none" stroke="#000000" stroke-miterlimit="10" points="2265.852,2756.676 2296.677,2702.875 2358.682,2702.67 
	2389.864,2756.267 2359.038,2810.067 2297.031,2810.272 "/>
<polygon fill="none" stroke="#000000" stroke-miterlimit="10" points="2265.851,2645.162 2296.676,2591.361 2358.682,2591.157 
	2389.863,2644.753 2359.039,2698.554 2297.03,2698.759 "/>
<polygon fill="none" stroke="#000000" stroke-miterlimit="10" points="2169.755,2591.36 2200.582,2537.561 2262.588,2537.355 
	2293.767,2590.953 2262.943,2644.754 2200.936,2644.958 "/>
<polygon fill="none" stroke="#000000" stroke-miterlimit="10" points="2203.845,2645.162 2234.67,2591.361 2296.676,2591.155 
	2327.857,2644.753 2297.034,2698.554 2235.025,2698.759 "/>
<polygon fill="none" stroke="#000000" stroke-miterlimit="10" points="2203.845,2648.799 2234.67,2594.997 2296.676,2594.792 
	2327.858,2648.39 2297.032,2702.19 2235.025,2702.396 "/>
<polygon fill="none" stroke="#000000" stroke-miterlimit="10" points="2192.266,2731.015 2223.091,2677.215 2285.097,2677.009 
	2316.277,2730.607 2285.452,2784.407 2223.446,2784.613 "/>
<polygon fill="none" stroke="#000000" stroke-miterlimit="10" points="2222.69,2677.214 2253.516,2623.414 2315.522,2623.208 
	2346.703,2676.807 2315.877,2730.607 2253.871,2730.812 "/>
<polygon fill="none" stroke="#000000" stroke-miterlimit="10" points="2177.798,2791.402 2208.624,2737.601 2270.629,2737.396 
	2301.811,2790.993 2270.985,2844.795 2208.978,2844.999 "/>
<polygon fill="none" stroke="#000000" stroke-miterlimit="10" points="2160.685,2731.016 2191.508,2677.214 2253.515,2677.01 
	2284.697,2730.607 2253.872,2784.407 2191.864,2784.612 "/>
<polygon fill="none" stroke="#000000" stroke-miterlimit="10" points="2098.679,2731.016 2129.504,2677.215 2191.51,2677.009 
	2222.691,2730.607 2191.866,2784.407 2129.858,2784.612 "/>
<polygon fill="none" stroke="#000000" stroke-miterlimit="10" points="2192.264,2784.817 2223.09,2731.019 2285.097,2730.812 
	2316.276,2784.409 2285.452,2838.21 2223.446,2838.415 "/>
<polygon fill="none" stroke="#000000" stroke-miterlimit="10" points="2115.792,2790.64 2146.618,2736.839 2208.624,2736.634 
	2239.804,2790.232 2208.98,2844.033 2146.972,2844.238 "/>
<polygon fill="none" stroke="#000000" stroke-miterlimit="10" points="2160.717,2730.677 2191.543,2676.876 2253.549,2676.672 
	2284.731,2730.269 2253.905,2784.071 2191.899,2784.274 "/>
<polygon fill="none" stroke="#000000" stroke-miterlimit="10" points="2588.712,2541.619 2683.274,2376.581 2873.486,2375.952 
	2969.135,2540.364 2874.573,2705.406 2684.361,2706.033 "/>
<polygon fill="none" stroke="#000000" stroke-miterlimit="10" points="2588.76,2541.468 2619.585,2487.667 2681.592,2487.461 
	2712.771,2541.06 2681.945,2594.859 2619.94,2595.066 "/>
<polygon fill="none" stroke="#000000" stroke-miterlimit="10" points="2650.813,2432.826 2682.157,2378.123 2745.203,2377.913 
	2776.908,2432.409 2745.566,2487.113 2682.518,2487.32 "/>
<polygon fill="none" stroke="#000000" stroke-miterlimit="10" points="2713.86,2541.468 2744.686,2487.667 2806.691,2487.461 
	2837.871,2541.06 2807.049,2594.861 2745.04,2595.066 "/>
<polygon fill="none" stroke="#000000" stroke-miterlimit="10" points="2775.866,2541.468 2806.691,2487.667 2868.697,2487.461 
	2899.879,2541.059 2869.053,2594.861 2807.046,2595.064 "/>
<polygon fill="none" stroke="#000000" stroke-miterlimit="10" points="2745.525,2487.526 2776.354,2433.723 2838.358,2433.519 
	2869.539,2487.116 2838.714,2540.917 2776.707,2541.122 "/>
<polygon fill="none" stroke="#000000" stroke-miterlimit="10" points="2671.191,2575.523 2702.018,2521.723 2764.023,2521.518 
	2795.203,2575.115 2764.379,2628.918 2702.372,2629.123 "/>
<polygon fill="none" stroke="#000000" stroke-miterlimit="10" points="2692.193,2541.194 2723.018,2487.396 2785.022,2487.191 
	2816.205,2540.787 2785.38,2594.588 2723.373,2594.791 "/>
<polygon fill="none" stroke="#000000" stroke-miterlimit="10" points="2680.609,2522.393 2711.432,2468.594 2773.438,2468.389 
	2804.619,2521.985 2773.795,2575.785 2711.787,2575.99 "/>
<polygon fill="none" stroke="#000000" stroke-miterlimit="10" points="2704.698,2595.27 2735.524,2541.47 2797.53,2541.264 
	2828.709,2594.861 2797.886,2648.66 2735.879,2648.865 "/>
<polygon fill="none" stroke="#000000" stroke-miterlimit="10" points="2745.526,2595.268 2776.354,2541.469 2838.359,2541.266 
	2869.539,2594.861 2838.714,2648.662 2776.707,2648.865 "/>
<polygon fill="none" stroke="#000000" stroke-miterlimit="10" points="2795.203,2506.735 2826.029,2452.936 2888.035,2452.733 
	2919.217,2506.327 2888.391,2560.129 2826.383,2560.334 "/>
<polygon fill="none" stroke="#000000" stroke-miterlimit="10" points="2780.857,2429.957 2811.683,2376.156 2873.688,2375.95 
	2904.869,2429.547 2874.045,2483.348 2812.039,2483.553 "/>
<polygon fill="none" stroke="#000000" stroke-miterlimit="10" points="2845.121,2541.469 2875.947,2487.667 2937.955,2487.461 
	2969.133,2541.059 2938.31,2594.861 2876.303,2595.066 "/>
<polygon fill="none" stroke="#000000" stroke-miterlimit="10" points="2780.857,2652.434 2811.684,2598.633 2873.688,2598.43 
	2904.869,2652.025 2874.044,2705.826 2812.038,2706.033 "/>
<polygon fill="none" stroke="#000000" stroke-miterlimit="10" points="2653.182,2652.434 2684.006,2598.633 2746.014,2598.428 
	2777.193,2652.027 2746.368,2705.828 2684.361,2706.033 "/>
<polygon fill="none" stroke="#000000" stroke-miterlimit="10" points="2716.918,2652.434 2747.742,2598.633 2809.75,2598.428 
	2840.929,2652.025 2810.105,2705.828 2748.098,2706.033 "/>
<polygon fill="none" stroke="#000000" stroke-miterlimit="10" points="2618.604,2595.271 2649.426,2541.47 2711.433,2541.265 
	2742.615,2594.861 2711.789,2648.662 2649.782,2648.867 "/>
<polygon fill="none" stroke="#000000" stroke-miterlimit="10" points="2813.014,2595.271 2843.839,2541.47 2905.844,2541.265 
	2937.025,2594.861 2906.199,2648.662 2844.192,2648.867 "/>
<polygon fill="none" stroke="#000000" stroke-miterlimit="10" points="2813.013,2483.757 2843.838,2429.957 2905.844,2429.752 
	2937.024,2483.348 2906.2,2537.149 2844.191,2537.354 "/>
<polygon fill="none" stroke="#000000" stroke-miterlimit="10" points="2716.917,2429.956 2747.743,2376.156 2809.75,2375.951 
	2840.929,2429.548 2810.104,2483.349 2748.098,2483.553 "/>
<polygon fill="none" stroke="#000000" stroke-miterlimit="10" points="2751.007,2483.757 2781.832,2429.957 2843.838,2429.75 
	2875.019,2483.348 2844.195,2537.149 2782.187,2537.354 "/>
<polygon fill="none" stroke="#000000" stroke-miterlimit="10" points="2751.007,2487.394 2781.832,2433.592 2843.838,2433.387 
	2875.02,2486.985 2844.193,2540.786 2782.187,2540.991 "/>
<polygon fill="none" stroke="#000000" stroke-miterlimit="10" points="2739.428,2569.609 2770.253,2515.81 2832.259,2515.604 
	2863.438,2569.203 2832.613,2623.002 2770.607,2623.209 "/>
<polygon fill="none" stroke="#000000" stroke-miterlimit="10" points="2769.852,2515.809 2800.678,2462.009 2862.684,2461.803 
	2893.864,2515.402 2863.039,2569.203 2801.032,2569.408 "/>
<polygon fill="none" stroke="#000000" stroke-miterlimit="10" points="2724.96,2629.998 2755.785,2576.195 2817.791,2575.99 
	2848.973,2629.588 2818.146,2683.391 2756.14,2683.594 "/>
<polygon fill="none" stroke="#000000" stroke-miterlimit="10" points="2707.847,2569.611 2738.67,2515.809 2800.677,2515.605 
	2831.858,2569.203 2801.033,2623.002 2739.025,2623.207 "/>
<polygon fill="none" stroke="#000000" stroke-miterlimit="10" points="2645.841,2569.611 2676.666,2515.81 2738.672,2515.604 
	2769.853,2569.203 2739.027,2623.002 2677.02,2623.207 "/>
<polygon fill="none" stroke="#000000" stroke-miterlimit="10" points="2739.426,2623.412 2770.252,2569.613 2832.259,2569.408 
	2863.438,2623.004 2832.613,2676.805 2770.607,2677.01 "/>
<polygon fill="none" stroke="#000000" stroke-miterlimit="10" points="2662.953,2629.234 2693.779,2575.434 2755.785,2575.229 
	2786.966,2628.828 2756.142,2682.629 2694.134,2682.834 "/>
<polygon fill="none" stroke="#000000" stroke-miterlimit="10" points="2707.879,2569.271 2738.705,2515.471 2800.711,2515.267 
	2831.893,2568.863 2801.066,2622.666 2739.061,2622.869 "/>
</svg>
